<svg id="Layer_1" data-name="Layer 1" xmlns="http://www.w3.org/2000/svg" xmlns:xlink="http://www.w3.org/1999/xlink" viewBox="0 0 296.4 106.57"><defs><style>.cls-1{fill:none;}.cls-2{clip-path:url(#clip-path);}.cls-3{fill:#f57e23;}.cls-4{fill:#0561a8;}.cls-5{fill:#231f20;}</style><clipPath id="clip-path"><rect class="cls-1" width="296.4" height="106.57"/></clipPath></defs><g class="cls-2"><path class="cls-3" d="M40.81,58.39,53.07,72.12a7.45,7.45,0,0,0-.45,2.28A70.41,70.41,0,0,1,39.08,87.52,72.63,72.63,0,0,1,19.17,64.11a73.52,73.52,0,0,1-8.39-39.29,25.15,25.15,0,0,0,7.54,1.24h.33a24.57,24.57,0,0,0,5.14-.54A25.71,25.71,0,0,0,39.14,15.08a27.3,27.3,0,0,0,13.24,9.79,26.65,26.65,0,0,0,6.3,1.31,7.19,7.19,0,0,0-.16,1.54,7.61,7.61,0,0,0,.28,2.05h0s0,.1.05.15L42.39,44.5a7.7,7.7,0,0,0-5.78-.68h0a7.56,7.56,0,0,0-4,2.75h0a7.52,7.52,0,0,0-1.23,6.6h0a7.53,7.53,0,0,0,2.78,4,7.63,7.63,0,0,0,4.56,1.51,8,8,0,0,0,2-.28h0l.08,0"/><path class="cls-4" d="M68.43,35.06a70.4,70.4,0,0,1-8.54,29.09c-.6,1.07-1.21,2.11-1.83,3.11L58,67.13l-.1-.12L46,53.69a7.45,7.45,0,0,0,.43-2.49,6.62,6.62,0,0,0,0-.77L63.8,35a7.6,7.6,0,0,0,2.43.4,7.45,7.45,0,0,0,1.32-.12l.18,0,.56-.13.14,0"/><path class="cls-5" d="M71.84,26.23a5.79,5.79,0,0,0-2.12-3.06A5.89,5.89,0,0,0,66.23,22a6.05,6.05,0,0,0-1.57.21,5.78,5.78,0,0,0-2.87,1.83,1.93,1.93,0,0,0-.22.28,5.62,5.62,0,0,0-1,2h0a5.82,5.82,0,0,0-.18,1.45,6,6,0,0,0,.21,1.56,6,6,0,0,0,.46,1.14l-.07.07L42.61,46.86l-.36-.3a5.91,5.91,0,0,0-3.49-1.15,5.8,5.8,0,0,0-5.83,5.78,5.67,5.67,0,0,0,.22,1.57h0a5.79,5.79,0,0,0,2.12,3.06l.3.21.08,0a5.9,5.9,0,0,0,3.1.9,6.08,6.08,0,0,0,1.58-.22,6.48,6.48,0,0,0,1.09-.42l.07.08h0l.9,1,12.49,14,0,.06.1.11h0l.39.44,0,0,0,.07v0A5.33,5.33,0,0,0,55,73.39h0v0c0,.17-.07.34-.1.51v0a8.56,8.56,0,0,0,0,.69,6,6,0,0,0,.21,1.56,5.59,5.59,0,0,0,.62,1.41,3,3,0,0,0,.21.33,6,6,0,0,0,1.29,1.33,5.89,5.89,0,0,0,3.49,1.15A5.9,5.9,0,0,0,64.54,79l.08-.08a5,5,0,0,0,.61-.69,5.8,5.8,0,0,0,1.15-3.46,6,6,0,0,0-.21-1.56A5.79,5.79,0,0,0,60.6,69,5.6,5.6,0,0,0,59,69.2a5.23,5.23,0,0,0-1.29.53L57,68.9l-.09-.1-.1-.12L43.9,54.1h0L43.84,54a5.73,5.73,0,0,0,.74-2.82,5.55,5.55,0,0,0-.19-1.45L63.45,32.88a5.88,5.88,0,0,0,2.78.7,6.09,6.09,0,0,0,1.4-.17h0l.18,0h0a6,6,0,0,0,.71-.25,6.54,6.54,0,0,0,.79-.41,5.86,5.86,0,0,0,1.57-1.44,5.7,5.7,0,0,0,1-5m-31,26.54a2.49,2.49,0,0,1-1.3.88,2.25,2.25,0,0,1-.66.1,2.5,2.5,0,0,1-1.47-.49,2.41,2.41,0,0,1-.88-1.3,2.15,2.15,0,0,1-.09-.66A2.43,2.43,0,0,1,38.2,49a2.23,2.23,0,0,1,.66-.09,2.46,2.46,0,0,1,2.35,1.78,2.21,2.21,0,0,1,.1.66,2.5,2.5,0,0,1-.49,1.47M58.17,74.55a2.51,2.51,0,0,1,.47-1.23,2.47,2.47,0,0,1,1.3-.89l.14,0a3.15,3.15,0,0,1,.52,0,2.44,2.44,0,0,1,1.46.49,2.37,2.37,0,0,1,.89,1.3,2.15,2.15,0,0,1,.09.66,2.46,2.46,0,0,1-.48,1.46,2.41,2.41,0,0,1-1.3.89,2.56,2.56,0,0,1-.66.09,2.46,2.46,0,0,1-2.35-1.78,2.25,2.25,0,0,1-.1-.66,1.94,1.94,0,0,1,0-.24m9.91-45.18a1.61,1.61,0,0,1-.24.28l-.18.16a2.4,2.4,0,0,1-.87.45,2.61,2.61,0,0,1-.66.09,2.5,2.5,0,0,1-1.47-.49,2.42,2.42,0,0,1-.88-1.29,2.25,2.25,0,0,1-.1-.66,2.5,2.5,0,0,1,.49-1.47,2.85,2.85,0,0,1,.23-.26h0s0,0,0,0a2.54,2.54,0,0,1,1-.6,2.44,2.44,0,0,1,1.67.13l.06,0a1.91,1.91,0,0,1,.27.16.36.36,0,0,1,.12.08l.08.06a2.33,2.33,0,0,1,.81,1.24,2.15,2.15,0,0,1,.09.66,2.4,2.4,0,0,1-.49,1.46"/><path class="cls-5" d="M84.85,36.46a8.18,8.18,0,0,1,4.16.8A4.28,4.28,0,0,1,91,41.1a4.5,4.5,0,0,1-2.13,4.06,7.75,7.75,0,0,1-4,.77h-1.3v4.88H81V36.46ZM83.51,44H85a3.84,3.84,0,0,0,2.29-.5,2.76,2.76,0,0,0,1-2.33,2.71,2.71,0,0,0-1-2.32,3.84,3.84,0,0,0-2.29-.5H83.51Z"/><path class="cls-5" d="M99.18,42.57a5.55,5.55,0,0,0-1.11-.12c-2.25,0-2.25,1.66-2.25,2.48v5.88H93.3V40.32h1.91l.49,2.06c.39-1.76,1.68-2.18,3.21-2.18h.27Z"/><path class="cls-5" d="M103.7,38.71h-2.56V36.46h2.56Zm0,12.1h-2.48V40.32h2.48Z"/><path class="cls-5" d="M108.77,40.32l.46,1.79c.35-1.22,1.3-2,3.11-2a3.45,3.45,0,0,1,3,1.37,5.29,5.29,0,0,1,.61,3.17v6.18h-2.52V44.59a2.88,2.88,0,0,0-.35-1.72,1.83,1.83,0,0,0-1.66-.76,2,2,0,0,0-2.11,2.29v6.41h-2.52V40.32Z"/><path class="cls-5" d="M126,50.66a7.94,7.94,0,0,1-2.27.3c-3.49,0-5.28-2-5.28-5.38s1.79-5.42,5.26-5.42a8.11,8.11,0,0,1,2.29.31v2h-.15a5.24,5.24,0,0,0-2-.42c-1.85,0-2.77,1.3-2.77,3.47s.92,3.51,2.75,3.51a5.55,5.55,0,0,0,2-.42H126Z"/><path class="cls-5" d="M136.36,50.5A12,12,0,0,1,133,51a5.39,5.39,0,0,1-4-1.3,5.31,5.31,0,0,1-1.41-4c0-3.42,1.75-5.59,4.88-5.59a4.13,4.13,0,0,1,3.74,1.83,8.52,8.52,0,0,1,.72,4.39h-6.75c0,1.79,1,2.86,3,2.86a9.93,9.93,0,0,0,3-.57h.15Zm-1.94-6c0-1.75-.54-2.75-2-2.75s-2.06,1.05-2.21,2.75Z"/><path class="cls-5" d="M145.64,50.73a7.62,7.62,0,0,1-1.91.23,3.41,3.41,0,0,1-3-1.18,5,5,0,0,1-.45-2.71V42.3h-1.91V40.47h1.91V37.76l2.48-.73v3.44h2.9V42.3h-2.9V47A3.1,3.1,0,0,0,143,48.6a1.18,1.18,0,0,0,1.12.49,4.13,4.13,0,0,0,1.39-.26h.16Z"/><path class="cls-5" d="M152.43,51.08c-3.23,0-5.11-1.87-5.11-5.5s1.85-5.53,5.15-5.53,5.11,1.87,5.11,5.49-1.85,5.54-5.15,5.54m2.48-5.52c0-2.36-.78-3.72-2.46-3.72S150,43.31,150,45.56s.78,3.72,2.46,3.72,2.46-1.47,2.46-3.72"/><path class="cls-5" d="M162.08,40.32l.46,1.79c.34-1.22,1.3-2,3.11-2a3.42,3.42,0,0,1,3,1.37,5.21,5.21,0,0,1,.62,3.17v6.18h-2.52V44.59a2.88,2.88,0,0,0-.35-1.72,1.83,1.83,0,0,0-1.66-.76,2,2,0,0,0-2.11,2.29v6.41h-2.52V40.32Z"/><path class="cls-4" d="M180.36,45.12v5.69h-2.52V36.46h4.77a6.62,6.62,0,0,1,3.82.84,3.83,3.83,0,0,1,1.6,3.4,3.9,3.9,0,0,1-2.8,4.06l3.53,6.05h-2.87l-3.12-5.69Zm0-1.9h2.22a3.6,3.6,0,0,0,1.94-.42,2.28,2.28,0,0,0,.88-2,2.25,2.25,0,0,0-.88-2,3.27,3.27,0,0,0-1.94-.44h-2.22Z"/><path class="cls-4" d="M198.66,50.5a12,12,0,0,1-3.32.46,5.42,5.42,0,0,1-4-1.3,5.35,5.35,0,0,1-1.41-4c0-3.42,1.76-5.59,4.89-5.59a4.11,4.11,0,0,1,3.73,1.83,8.42,8.42,0,0,1,.73,4.39h-6.75c0,1.79,1,2.86,3,2.86a9.93,9.93,0,0,0,3-.57h.15Zm-1.95-6c0-1.75-.53-2.75-2-2.75s-2.06,1.05-2.21,2.75Z"/><path class="cls-4" d="M208.14,42.57H208a8,8,0,0,0-2.52-.54c-1.07,0-1.56.42-1.56,1,0,1.62,4.73,1.14,4.73,4.77,0,2.23-1.78,3.2-4.3,3.2a8.12,8.12,0,0,1-3-.49v-2h.15a9.4,9.4,0,0,0,2.94.65c1.14,0,1.64-.46,1.64-1.07,0-1.89-4.73-1.33-4.73-4.75,0-1.9,1.49-3.11,4.14-3.11a9,9,0,0,1,2.61.38Z"/><path class="cls-4" d="M219.27,50.5A12.06,12.06,0,0,1,216,51a4.77,4.77,0,0,1-5.42-5.32c0-3.42,1.75-5.59,4.88-5.59a4.12,4.12,0,0,1,3.74,1.83,8.42,8.42,0,0,1,.73,4.39h-6.76c0,1.79,1,2.86,3,2.86a9.83,9.83,0,0,0,3-.57h.16Zm-2-6c0-1.75-.53-2.75-2-2.75s-2.07,1.05-2.22,2.75Z"/><path class="cls-4" d="M222.7,40.58a13.82,13.82,0,0,1,3.38-.42c1.89,0,3.18.42,3.87,1.42a5.56,5.56,0,0,1,.61,3.2v6h-1.87l-.5-1.72c-.19,1-1.06,1.95-2.93,1.95s-3.51-1.11-3.51-3.17a2.87,2.87,0,0,1,1.37-2.59c1.26-.77,3.13-.77,5-.77a3.17,3.17,0,0,0-.31-1.75,2.23,2.23,0,0,0-2-.73,9.64,9.64,0,0,0-2.94.54h-.15Zm3.17,8.55a2,2,0,0,0,1.9-1,4.08,4.08,0,0,0,.31-1.83v-.23a7,7,0,0,0-3,.38,1.4,1.4,0,0,0-.76,1.32c0,.82.5,1.35,1.53,1.35"/><path class="cls-4" d="M239.49,42.57a5.55,5.55,0,0,0-1.11-.12c-2.25,0-2.25,1.66-2.25,2.48v5.88h-2.52V40.32h1.91l.5,2.06c.38-1.76,1.68-2.18,3.2-2.18h.27Z"/><path class="cls-4" d="M248.13,50.66a7.94,7.94,0,0,1-2.27.3c-3.49,0-5.28-2-5.28-5.38s1.79-5.42,5.26-5.42a8.11,8.11,0,0,1,2.29.31v2H248a5.31,5.31,0,0,0-2-.42c-1.86,0-2.77,1.3-2.77,3.47s.91,3.51,2.75,3.51a5.55,5.55,0,0,0,2-.42h.15Z"/><path class="cls-4" d="M253.15,35.93v6c.34-1.11,1.18-1.87,3-1.87a3.45,3.45,0,0,1,3.05,1.37,5.29,5.29,0,0,1,.61,3.17v6.18h-2.52V44.59a3,3,0,0,0-.34-1.72,1.83,1.83,0,0,0-1.66-.76,2,2,0,0,0-2.12,2.29v6.41h-2.48V35.93Z"/><path class="cls-4" d="M85,56.41a9.72,9.72,0,0,1,5,1c1.72,1,3,3,3,6.22s-1.18,5.19-3.05,6.24a9.84,9.84,0,0,1-4.89.94H81V56.41ZM83.51,68.85h1.6a6,6,0,0,0,3.06-.57c1.49-.84,2-2.48,2-4.7s-.52-3.83-2.06-4.69a6,6,0,0,0-3-.57h-1.6Z"/><path class="cls-4" d="M95.65,60.53A13.79,13.79,0,0,1,99,60.11c1.89,0,3.19.42,3.88,1.41a5.59,5.59,0,0,1,.61,3.21v6h-1.87l-.5-1.72C101,70,100.07,71,98.2,71s-3.51-1.11-3.51-3.17a2.88,2.88,0,0,1,1.38-2.6c1.26-.76,3.13-.76,5-.76a3.15,3.15,0,0,0-.31-1.75,2.23,2.23,0,0,0-2-.73,9.64,9.64,0,0,0-2.94.54h-.15Zm3.16,8.55a2.08,2.08,0,0,0,1.91-1,4.14,4.14,0,0,0,.31-1.84V66a6.83,6.83,0,0,0-3,.38,1.39,1.39,0,0,0-.76,1.31c0,.82.49,1.36,1.52,1.36"/><path class="cls-4" d="M112.74,70.68a7.62,7.62,0,0,1-1.91.23,3.38,3.38,0,0,1-3-1.18,4.92,4.92,0,0,1-.46-2.71V62.25h-1.91V60.42h1.91V57.71l2.48-.73v3.44h2.9v1.83h-2.9V67a3,3,0,0,0,.23,1.56,1.2,1.2,0,0,0,1.13.5,4.07,4.07,0,0,0,1.39-.27h.15Z"/><path class="cls-4" d="M115.51,60.53a13.82,13.82,0,0,1,3.38-.42c1.88,0,3.18.42,3.87,1.41a5.59,5.59,0,0,1,.61,3.21v6H121.5L121,69c-.19.95-1.06,1.95-2.93,1.95s-3.51-1.11-3.51-3.17a2.87,2.87,0,0,1,1.37-2.6c1.26-.76,3.13-.76,5-.76a3.15,3.15,0,0,0-.31-1.75,2.23,2.23,0,0,0-2-.73,9.64,9.64,0,0,0-2.94.54h-.15Zm3.17,8.55a2.06,2.06,0,0,0,1.9-1,4.14,4.14,0,0,0,.31-1.84V66a6.83,6.83,0,0,0-3,.38,1.39,1.39,0,0,0-.76,1.31c0,.82.5,1.36,1.53,1.36"/><path class="cls-4" d="M139.8,58.74h-.16a10.59,10.59,0,0,0-3.24-.65c-1.6,0-2.4.68-2.4,1.72,0,2.9,6.48,2.15,6.48,6.92,0,2.84-2.29,4.18-5.41,4.18a10.24,10.24,0,0,1-3.71-.65v-2h.16a10.76,10.76,0,0,0,3.64.84c1.66,0,2.65-.8,2.65-2,0-3.11-6.48-2.39-6.48-6.91,0-2.44,1.87-3.89,5-3.89a12.11,12.11,0,0,1,3.48.53Z"/><path class="cls-4" d="M151.23,70.45a12.06,12.06,0,0,1-3.32.46,4.77,4.77,0,0,1-5.42-5.32c0-3.42,1.75-5.59,4.88-5.59a4.1,4.1,0,0,1,3.74,1.83,8.42,8.42,0,0,1,.73,4.39h-6.76c0,1.79,1,2.86,3,2.86a9.83,9.83,0,0,0,3-.57h.16Zm-1.95-6c0-1.76-.53-2.75-2-2.75s-2.07,1-2.22,2.75Z"/><path class="cls-4" d="M160.35,62.52a5.55,5.55,0,0,0-1.11-.12c-2.25,0-2.25,1.66-2.25,2.48v5.88h-2.52V60.26h1.91l.49,2.06c.39-1.75,1.68-2.17,3.21-2.17h.27Z"/><polygon class="cls-4" points="164.26 60.26 166.85 67.93 169.52 60.26 171.81 60.26 167.84 70.76 165.36 70.76 161.43 60.26 164.26 60.26"/><path class="cls-4" d="M176.58,58.66H174V56.41h2.55Zm0,12.1h-2.47V60.26h2.47Z"/><path class="cls-4" d="M186.66,70.6a7.79,7.79,0,0,1-2.27.31c-3.5,0-5.29-2-5.29-5.38s1.79-5.42,5.27-5.42a8.2,8.2,0,0,1,2.29.31v2h-.16a5.24,5.24,0,0,0-2-.42c-1.85,0-2.77,1.3-2.77,3.47s.92,3.51,2.75,3.51a5.55,5.55,0,0,0,2-.42h.16Z"/><path class="cls-4" d="M197,70.45a12,12,0,0,1-3.32.46,4.77,4.77,0,0,1-5.42-5.32c0-3.42,1.75-5.59,4.88-5.59a4.1,4.1,0,0,1,3.74,1.83,8.42,8.42,0,0,1,.73,4.39h-6.76c0,1.79,1,2.86,3,2.86a9.83,9.83,0,0,0,3-.57H197Zm-1.95-6c0-1.76-.53-2.75-2-2.75s-2.06,1-2.22,2.75Z"/></g></svg>