<svg id="Layer_1" data-name="Layer 1" xmlns="http://www.w3.org/2000/svg" viewBox="0 0 322.8 322.8"><defs><style>.cls-1{opacity:0.2;}.cls-2{fill:#bdbec0;}.cls-3{fill:#f57e23;}.cls-4{fill:#0561a8;}.cls-5{fill:#818285;}</style></defs><g class="cls-1"><path class="cls-2" d="M168.44,22.37,148.51,48.85a114.81,114.81,0,0,1,12.89-.73,113.38,113.38,0,0,1,110.37,87.62l25.61,18.76,21.38-29.18A161.31,161.31,0,0,0,161.4,0a163,163,0,0,0-20.9,1.34Z"/><path class="cls-3" d="M22,153.31l26.87,20.83a114.51,114.51,0,0,1-.71-12.74A113.4,113.4,0,0,1,135.83,51l20.23-26.88L128.48,3.36A161.29,161.29,0,0,0,0,161.4a163.71,163.71,0,0,0,1.09,18.84Z"/><path class="cls-4" d="M299.29,166.85l-25.36-18.58a114.41,114.41,0,0,1,.75,13.13,113.34,113.34,0,0,1-92.55,111.39l-14,30.28,32.32,15A161.28,161.28,0,0,0,322.8,161.4a162.25,162.25,0,0,0-1.8-24.2Z"/><path class="cls-5" d="M156.37,307.38l15.37-33.17q-5.13.46-10.34.47A113.4,113.4,0,0,1,51,187L23.53,165.71,3,192.26A161.29,161.29,0,0,0,161.4,322.8,162.83,162.83,0,0,0,185.75,321Z"/></g></svg>