<svg data-name="Layer 1" xmlns="http://www.w3.org/2000/svg" viewBox="0 0 322.8 322.8"><g opacity=".2"><path d="M168.44 22.37l-19.93 26.48a114.81 114.81 0 0112.89-.73 113.38 113.38 0 01110.37 87.62l25.61 18.76 21.38-29.18A161.31 161.31 0 00161.4 0a163 163 0 00-20.9 1.34z" fill="#bdbec0"/><path d="M22 153.31l26.87 20.83a114.51 114.51 0 01-.71-12.74A113.4 113.4 0 01135.83 51l20.23-26.88-27.58-20.76A161.29 161.29 0 000 161.4a163.71 163.71 0 001.09 18.84z" fill="#f57e23"/><path d="M299.29 166.85l-25.36-18.58a114.41 114.41 0 01.75 13.13 113.34 113.34 0 01-92.55 111.39l-14 30.28 32.32 15A161.28 161.28 0 00322.8 161.4a162.25 162.25 0 00-1.8-24.2z" fill="#0561a8"/><path d="M156.37 307.38l15.37-33.17q-5.13.46-10.34.47A113.4 113.4 0 0151 187l-27.47-21.29L3 192.26A161.29 161.29 0 00161.4 322.8a162.83 162.83 0 0024.35-1.8z" fill="#818285"/></g></svg>