<svg id="Layer_1" data-name="Layer 1" xmlns="http://www.w3.org/2000/svg" viewBox="0 0 100 103"><path d="M21.61,34.19l1.33,2A31.14,31.14,0,0,1,46.69,20.32L48,20.18v5.55a.8.8,0,0,0,.26-.08l12.85-8.54L48.24,9a.82.82,0,0,0-.28-.1v5.61l-1,.09A36.66,36.66,0,0,0,18.86,31.82,6.68,6.68,0,0,1,21.61,34.19Z"/><path d="M19.39,52.79l-.14-1.27H24.8a.66.66,0,0,0-.08-.26L16.18,38.42,8,51.24a.66.66,0,0,0-.09.28h5.6l.09,1A36.68,36.68,0,0,0,33.91,82.3a6.59,6.59,0,0,1,2.78-3.92l1-.64A31.17,31.17,0,0,1,19.39,52.79Z"/><path d="M80.88,66.72l-1.6-2.41a31.08,31.08,0,0,1-24,16.29L54,80.74V75.19a.61.61,0,0,0-.26.08L40.92,83.81,53.75,92a.57.57,0,0,0,.28.09v-5.6l1-.09A36.68,36.68,0,0,0,83.25,68.9,6.68,6.68,0,0,1,80.88,66.72Z"/><path d="M88.88,48.35A36.59,36.59,0,0,0,68.13,18.4a6.62,6.62,0,0,1-2.84,4.14l-.76.51A31.08,31.08,0,0,1,83.11,48.13l.13,1.27H77.69a.73.73,0,0,0,.08.25L86.32,62.5l8.16-12.83a1,1,0,0,0,.09-.27H89Z"/></svg>