<svg id="Layer_1" data-name="Layer 1" xmlns="http://www.w3.org/2000/svg" viewBox="0 0 972.02 889.46"><defs><style>.cls-1,.cls-2{fill:#cecccb;}.cls-2{opacity:0.3;}.cls-3{fill:#e6e7e7;}.cls-4{fill:#0561a8;}</style></defs><path class="cls-1" d="M163.33,406.92a2.66,2.66,0,0,0,3.45,1.48,2.57,2.57,0,0,0,1.23-1l.09-.17a2.58,2.58,0,0,0,.23-.54l159.13,41-26.72,38.09a2.11,2.11,0,0,0-1.83-.24,1.84,1.84,0,0,0-.91.7l-.08.17a1.88,1.88,0,0,0,0,1.64,2.17,2.17,0,0,0,1.07,1.1L284.2,527.87a2.6,2.6,0,0,0-1.84,0,2.65,2.65,0,0,0,2,4.93l.27-.14,30.53,51.95a2.63,2.63,0,0,0,.09,4.51L258.84,693.41a2.65,2.65,0,1,0-1.42,5l-6.8,120.47a3.93,3.93,0,0,0-1.61.27,4,4,0,0,0,3,7.42,3.94,3.94,0,0,0,2.35-2.74l274.16,62.47a2.61,2.61,0,0,0,.13,1.48,2.65,2.65,0,1,0,3.14-3.55L583.51,668.8,687,618a2.65,2.65,0,1,0,1.75-3.83L665.4,524l141.82-74.43a2.65,2.65,0,1,0,1.31-3.78l-.31.16-60-98.28a2.67,2.67,0,0,0-.76-4.77l24.65-105.3a2.61,2.61,0,0,0,1.53-.13,2.66,2.66,0,0,0-2-4.94,2.45,2.45,0,0,0-.61.36l-63.32-77.08a4.42,4.42,0,0,0-4.5-7.48,4.74,4.74,0,0,0-1.4.9L670,116.48l25.91-32.86a2.6,2.6,0,0,0,2.55.33,2.66,2.66,0,1,0-2-4.93,2.69,2.69,0,0,0-1.27,1.1L563.68,6.52a2.65,2.65,0,1,0-4.82-.23,2.16,2.16,0,0,0,.17.34L506.92,39.29,404.15,16.58a2.75,2.75,0,0,0-.14-1.47,2.65,2.65,0,0,0-4.93,2,2.61,2.61,0,0,0,1.22,1.35L341,140.05a5.22,5.22,0,0,0-4.16-.13,5.29,5.29,0,0,0-2.92,6.9l.1.22L211.72,207.42a2.65,2.65,0,1,0-3,3.82L166.28,403.33a2.57,2.57,0,0,0-1.47.14A2.65,2.65,0,0,0,163.33,406.92ZM356.42,250.07,377,371.63a3.92,3.92,0,0,0-.81.23,4.37,4.37,0,0,0-1.43.93L211.34,210.47a2.65,2.65,0,0,0,.57-1ZM318.75,585.39l139-102.05c.07.07.12.15.2.22L356.32,591.17l-37.13-4.09a2.43,2.43,0,0,0-.17-1.18A2.49,2.49,0,0,0,318.75,585.39Zm.43,1.88,37,4.07-57.93,61.35,17.7-63.23a2.63,2.63,0,0,0,1.61-.11A2.68,2.68,0,0,0,319.18,587.27Zm234-4a2,2,0,0,0-.2-.35l41.61-21.83,12.77,7.51-6.59,27.43-47.39-11A2.69,2.69,0,0,0,553.21,583.29Zm217-347.39-43,19-9.47-43.65L770.24,234A2.65,2.65,0,0,0,770.21,235.9Zm-69.4-81.85a2.75,2.75,0,0,0,.2.38l-47.1,28.86-27.3-11.85L646,146.92l54.57,5.22A4.39,4.39,0,0,0,700.81,154.05ZM494.19,290.35a2.64,2.64,0,0,0,1.49,1.48l-23.85,70.5a2.57,2.57,0,0,0-1.75.05l-.3.16-58.38-97,82.68,23.23A2.56,2.56,0,0,0,494.19,290.35Zm-1,301.1L460.7,484.21l.16,0a2.74,2.74,0,0,0,.69-.39L547.91,582a2.75,2.75,0,0,0-1.15,2.65Zm53.58-6.6a2.54,2.54,0,0,0,.19.59,3.17,3.17,0,0,0,.57.82l-45,36-9.27-30.57ZM595,507.7l-44.92-51.84,85.78-24.65c0,.14.09.27.14.4a5.32,5.32,0,0,0,2.14,2.56Zm43.3-73.43a5.39,5.39,0,0,0,1.27.52l-23.38,97.34L595.1,507.84ZM618.34,236.08a2.8,2.8,0,0,0-.49-.77L666.62,189l4.66,2L549.15,331.42l-.13-.1,65.39-92a2.66,2.66,0,0,0,3.93-3.2ZM548.87,331.2a3.87,3.87,0,0,0-1-.54l33.63-99.8a3.9,3.9,0,0,0,2.65-.07,4,4,0,0,0,2.19-5.17,3.1,3.1,0,0,0-.27-.51l67.91-41.61,12.5,5.42-48.7,46.26a2.66,2.66,0,0,0-2.85-.58,2.13,2.13,0,0,0-.42.23l-.16.11a2.62,2.62,0,0,0-.89,3.11,2.66,2.66,0,0,0,.85,1.12Zm1.47-190.51a3.92,3.92,0,0,0,1.29-1.57l23.43,10.16,7.08,73.85a3.91,3.91,0,0,0-.87.2l-31.72-82.19a4.32,4.32,0,0,0,.64-.34Zm-6-1.77a4,4,0,0,0,2.31,2.25L536,172.64,507.14,139l37-1.31A4.16,4.16,0,0,0,544.36,138.92ZM344,144l96.09-17,4.86,14L344,144.55A3.57,3.57,0,0,0,344,144Zm101-2.81,15.54,44.66L343.79,146.52a4.88,4.88,0,0,0,.24-1.78ZM440.24,127l48.94-8.64,17.56,20.46L445.11,141Zm66.66,12L536,172.85l-11.67,34.48-63.53-21.41-15.57-44.75Zm-36,228.5a2.5,2.5,0,0,0,1.14-.17,2.57,2.57,0,0,0,.68-.41l29.83,34.41-34.23-7Zm-2.77,26.81-85.92-17.54a4.15,4.15,0,0,0,0-1.22l86.21-10.29a2.4,2.4,0,0,0,.15.57,2.67,2.67,0,0,0,2.1,1.65Zm167.51,36.14,0,.19c0,.12.06.26.09.39L549.92,455.7l-44.46-51.3,1.2-2,129,26.34A5.4,5.4,0,0,0,635.65,430.45Zm-93.47-94.08L473.47,363.8a2.8,2.8,0,0,0-.68-.93L517,308.08l26,23.83A4.41,4.41,0,0,0,542.18,336.37Zm-43.52-45.28a2.65,2.65,0,0,0,.46-2.71,2.19,2.19,0,0,0-.27-.5l80.64-58.42a3.72,3.72,0,0,0,.3.37l-62.86,78Zm-1.11-4.21,26.85-79.32,54.45,18.35a4,4,0,0,0,.1,2.63,4.84,4.84,0,0,0,.42.78l-80.63,58.42A2.55,2.55,0,0,0,497.55,286.88Zm26.91-79.5L536.09,173,580,224.12a4,4,0,0,0-1.05,1.61Zm56.81,23.42-33.64,99.8a4.34,4.34,0,0,0-4.51,1.17l-26-23.83,62.86-78A4,4,0,0,0,581.27,230.8ZM544,338.57l-26,44.11-44.47-17a2.66,2.66,0,0,0,0-1.74l68.71-27.43A4.36,4.36,0,0,0,544,338.57Zm-25.89,44.34,117.78,44.95c-.07.21-.14.43-.19.65L506.76,402.19Zm-12.78,21.33-2.28-2.61,3.41.69Zm-2.48-2.85-30-34.59a2.57,2.57,0,0,0,.63-.91l44.43,16.95-11.37,19.31Zm-30.85-39,23.86-70.51a2.6,2.6,0,0,0,1.78-.05,2.68,2.68,0,0,0,.9-.6L516.81,308l-44.17,54.8A2.51,2.51,0,0,0,472,362.39Zm23.87-75.55-35-100.69,63.39,21.35-26.84,79.32A2.59,2.59,0,0,0,495.87,286.84Zm51-145.61a3.89,3.89,0,0,0,2.52,0l31.73,82.19a3.85,3.85,0,0,0-1,.62l-44-51.21Zm4.85-2.29a3.89,3.89,0,0,0,.24-1l22.23,2.13.86,9Zm23.55,10.43,51.06,22.15L585,223.93a4,4,0,0,0-2.66-.81Zm0-.22-.87-9.08,71.37,6.83-19.3,24.47Zm51.26,22.45,27.22,11.81-67.77,41.53a3.87,3.87,0,0,0-.81-.9l11.68-14.8.12-.15ZM549.38,338,637.05,426a5.25,5.25,0,0,0-1.1,1.73L518.2,382.75l26-44.09a4.41,4.41,0,0,0,3.81.27A4.5,4.5,0,0,0,549.38,338Zm45.49,169.84-23.19,39.53L462.22,483a2.63,2.63,0,0,0,.24-2l87.4-25.12ZM461.26,479.45l44.09-74.88,44.37,51.19L462.4,480.85s0-.09,0-.13A2.69,2.69,0,0,0,461.26,479.45Zm-.16-.09a2.92,2.92,0,0,0-.92-.3l8.13-84.53,34.45,7,2.47,2.85ZM460,479a2.72,2.72,0,0,0-1.19.17,2.62,2.62,0,0,0-.55.29L380.65,379.41a4.48,4.48,0,0,0,1.54-2.46l85.94,17.54ZM377.23,371.6,356.62,250.13l54.52,15.31,58.48,97.19a2.63,2.63,0,0,0-1.17,2.44l-86.2,10.29a4.86,4.86,0,0,0-.26-1A4.44,4.44,0,0,0,377.23,371.6Zm117.53-84.1L346.86,152.19l-4.14-3.78a5.07,5.07,0,0,0,1-1.72L460.6,186.07l35.09,100.82h0A2.72,2.72,0,0,0,494.76,287.5ZM343.23,142.08,427,89.58l13,37.27-96.07,17a5.65,5.65,0,0,0-.26-.89A4.74,4.74,0,0,0,343.23,142.08Zm83.95-52.61,24.2-15.16L489,118.19l-48.86,8.62Zm24.36-15.26,11.39-7.13L518.37,113l-29.12,5.14Zm67,39L544.92,135a4.06,4.06,0,0,0-.84,2.51L507,138.8,489.4,118.32Zm.24,0L551,107.44l-2.62,26.06a3.74,3.74,0,0,0-3.3,1.35Zm32.34-5.71L570.7,104l3.45,35.9L552,137.74a4,4,0,0,0-3.44-4.22Zm0-.19,5.7-56.7,8.89,2,4.92,51.28ZM566,52.53l52.69,11.64,25.92,26.56-73.69,13Zm53,11.72L694.82,81a2.68,2.68,0,0,0,0,.85l-50,8.83Zm50.73,52.24-23.85,30.24-71.52-6.85-3.45-36,73.83-13ZM701.1,154.6a4.19,4.19,0,0,0,.6.83l-35.12,33.35-12.46-5.4Zm.73,1,.18.15-30.6,35.16-4.64-2Zm-30.36,35.54,46.1,20,9.51,43.83L550.33,333a4.35,4.35,0,0,0-1-1.42Zm74.67,151.73-.33.09a2.64,2.64,0,0,0-1.63,2.27L550.75,335a4.48,4.48,0,0,0-.31-1.79s0,0,0,0l176.7-78ZM744.7,347,685,394.47l-134.56-58a4.74,4.74,0,0,0,.31-1.35l193.43,10.24a2.69,2.69,0,0,0,.19,1A3,3,0,0,0,744.7,347ZM684.82,394.6l-39.88,31.71a5.29,5.29,0,0,0-6.05-1.59,5.1,5.1,0,0,0-1.71,1.11l-87.67-87.94a4.23,4.23,0,0,0,.83-1.23Zm-42.71,40.24,23.08,89-38.64,20.27L616.3,532.31l23.42-97.47A5.21,5.21,0,0,0,642.11,434.84ZM626.38,544.22,611.57,552l4.68-19.47Zm-15,7.89-16.73,8.78-22.78-13.4L595,508l21.09,24.35Zm-.06.24-3.86,16.08L594.81,561Zm-58.38,30.43a3.38,3.38,0,0,0-1.18-1l20-34.12L594.43,561Zm-1.35-1.09a3.7,3.7,0,0,0-2.76-.16,3.2,3.2,0,0,0-.74.37l-86.37-98.25a2.38,2.38,0,0,0,.44-.51l109.46,64.41Zm-1.72,5.68-6.35,100.87-14.72,7.22a4.14,4.14,0,0,0-2.62-2l23.39-106.12ZM526,693.42a4.05,4.05,0,0,0-1.83.06L502.59,622.4l45.09-36a3.53,3.53,0,0,0,1.67.89Zm-2,.11a1.67,1.67,0,0,0-.3.08,3.94,3.94,0,0,0-1.2.73l-47.86-49.58,27.84-22.23Zm-49.49-48.91L432.64,601.3a2.61,2.61,0,0,0,.72-2.07l59.72-7.57,9.29,30.67ZM429.74,597a2.64,2.64,0,0,0-1.63,2.08l-37.65-4.15L458.53,484a2.85,2.85,0,0,0,2,.27L493,591.48,433.35,599a2.73,2.73,0,0,0-.15-.56A2.67,2.67,0,0,0,429.74,597Zm-39.49-2.09-33.69-3.71L458.08,483.68l.29.22Zm67-114L327.77,447.57l47.64-67.91a4.4,4.4,0,0,0,4.1.43,3.87,3.87,0,0,0,1-.57L445,462.71l.14.17,13,16.74A2.53,2.53,0,0,0,457.23,480.92ZM339.47,150.14l16.92,99.73L212,209.3a2.7,2.7,0,0,0-.11-1.61l-.06-.1,122.26-60.38A5.32,5.32,0,0,0,339.47,150.14Zm1.9-.64L411,265.21l-54.41-15.29-16.93-99.81a4.25,4.25,0,0,0,1.08-.3A3.68,3.68,0,0,0,341.37,149.5Zm1.23-.95,152,139.11a2.55,2.55,0,0,0-.49.9l-82.88-23.28L341.53,149.41A5.25,5.25,0,0,0,342.6,148.55ZM402.32,18.62,427,89.4l-83.82,52.53a5.26,5.26,0,0,0-2-1.8L400.47,18.52A2.66,2.66,0,0,0,402.32,18.62Zm.87-.46,48.07,56L427.12,89.29,402.5,18.57h0A2.58,2.58,0,0,0,403.19,18.16Zm.33-.31L462.78,67l-11.36,7.12-48.08-56ZM506.69,39.43,463,66.84,403.64,17.71a2.64,2.64,0,0,0,.47-.95Zm.26.06,49.73,11L551,107.25,518.61,113,463.1,67ZM561,7.93,556.7,50.29,507.18,39.35,559.13,6.79A2.63,2.63,0,0,0,561,7.93Zm.51,0,4.26,44.34-8.85-2L561.15,8Zm1.62-.68,55.31,56.66-52.48-11.6-4.26-44.4a2.5,2.5,0,0,0,.64-.16A2.79,2.79,0,0,0,563.1,7.27Zm132,73a2.6,2.6,0,0,0-.21.55L618.74,64,563.24,7.14a2.48,2.48,0,0,0,.34-.46Zm-25.25,36.06L644.94,90.85,694.83,82a3,3,0,0,0,.12.43,2.75,2.75,0,0,0,.76,1Zm31.93,33a4.41,4.41,0,0,0-1.22,2.63l-54.45-5.21,23.76-30.13Zm4,7.42,11.74,54.14L671.6,191l30.55-35.12A4.4,4.4,0,0,0,705.78,156.75ZM771,233a2.81,2.81,0,0,0-.63.82L717.74,211,706,156.7a4.27,4.27,0,0,0,.61-.18,3.87,3.87,0,0,0,1.06-.63ZM747.32,342.8a3,3,0,0,0-1,0l-19-87.73,43-19A2.59,2.59,0,0,0,772,237.5Zm59.8,104.29L685.18,394.55l59.64-47.42a2.62,2.62,0,0,0,3,.75l.31-.16,60,98.28A2.72,2.72,0,0,0,807.12,447.09Zm-.23.75L646.13,430.15a5.33,5.33,0,0,0-.36-2.44,5,5,0,0,0-.72-1.25l40-31.78,122,52.58A3.53,3.53,0,0,0,806.89,447.84ZM665.36,523.77l-23.07-89,.56-.19a5.28,5.28,0,0,0,3.27-4.28L806.87,448a2.7,2.7,0,0,0,.18,1.18.8.8,0,0,0,.08.16Zm22.34,90.92-61-70.41L665.24,524l23.37,90.18-.24.06A2.68,2.68,0,0,0,687.7,614.69Zm-.57.64-79.53-46.8,3.92-16.29,15-7.87,61,70.44A2.66,2.66,0,0,0,687.13,615.33Zm-.33.73-85.82-20,6.58-27.37L687,615.49A3.57,3.57,0,0,0,686.8,616.06ZM583.57,668.57l17.37-72.3,85.82,20a2.55,2.55,0,0,0,.13,1.49l.05.1Zm-.22.11-39.66,19.46L550,587.39a3.45,3.45,0,0,0,1.38-.19,3,3,0,0,0,2-2l47.4,11Zm-52,215.5,12.32-195.82,39.62-19.45L531.57,884.2Zm-.26,0-5.68-182.87a3.93,3.93,0,0,0,3.58-5.42c0-.09-.1-.16-.14-.24l14.62-7.18-12.3,195.71Zm-276.72-60.5a4,4,0,0,0-.21-2.25.93.93,0,0,1,0-.1L521.58,699.08a4.17,4.17,0,0,0,3.65,2.23l5.68,182.86a2.93,2.93,0,0,0-.81.17,2.63,2.63,0,0,0-1.57,1.79Zm-.46-2.73,220.52-176,47.86,49.58a3.88,3.88,0,0,0-.89,4.31c0,.06.05.1.07.15L254,821.15C254,821.08,254,821,253.92,820.93Zm-.88-1.07,176.1-218.28a2.62,2.62,0,0,0,2.57.35,2.59,2.59,0,0,0,.79-.5l41.81,43.31-220.48,176A4,4,0,0,0,253,819.86Zm-.4-.32L390.35,595.11l37.74,4.16a2.69,2.69,0,0,0,.17,1.18,2.44,2.44,0,0,0,.74,1L252.89,819.74A2.43,2.43,0,0,0,252.64,819.54Zm-1-.45,46.47-166,58.27-61.71,33.75,3.72L252.48,819.45A4.34,4.34,0,0,0,251.65,819.09Zm8.48-124.29a2.62,2.62,0,0,0-.57-.88l38.28-40.55L251.47,819a3.82,3.82,0,0,0-.66-.12l6.8-120.47a2.52,2.52,0,0,0,1-.19A2.65,2.65,0,0,0,260.13,694.8Zm55.63-105.4L298,653,259.41,693.8a2.27,2.27,0,0,0-.4-.29l56.37-104.26A2.5,2.5,0,0,0,315.76,589.4Zm-31-56.79a2.63,2.63,0,0,0,1.14-2.85l171.36-47.27a.64.64,0,0,0,.05.17,2.5,2.5,0,0,0,.3.53l-139,102.06a2.64,2.64,0,0,0-3.06-.83l-.27.14Zm17-45.2,155.41-5.54a2.24,2.24,0,0,0,.07.44L285.87,529.58l-.06-.19a2.63,2.63,0,0,0-1.43-1.46l14.75-38.72a2,2,0,0,0,1.4,0A1.78,1.78,0,0,0,301.73,487.41Zm25.92-39.68,129.52,33.36a3,3,0,0,0-.05.6l-155.41,5.53a.17.17,0,0,1,0-.07l-.06-.19c0-.07,0-.15-.07-.23a2.11,2.11,0,0,0-.68-.85ZM168.39,406.5a2.67,2.67,0,0,0,0-.85l205.08-29a3.57,3.57,0,0,0,.25.93,4.36,4.36,0,0,0,1.5,1.92l-47.68,68Zm-1.93-3.13,42.45-192.09a2.62,2.62,0,0,0,2.29-.67L374.67,372.93a4.4,4.4,0,0,0-1.18,3.57l-205.08,29a2.63,2.63,0,0,0-.15-.53A2.66,2.66,0,0,0,166.46,403.37Z"/><path class="cls-1" d="M264.93,170.13a2.41,2.41,0,0,0,2.67,3.35l.17,0a2.61,2.61,0,0,0,.5-.2l74.3,129.88-41.83,6.76a1.88,1.88,0,0,0-1-1.35,1.66,1.66,0,0,0-1-.15l-.16.05a1.69,1.69,0,0,0-1.09,1,2,2,0,0,0,0,1.4l-34.65,15a2.34,2.34,0,0,0-1.18-1.18,2.42,2.42,0,1,0-2,4.42,1.12,1.12,0,0,0,.26.08l-14.51,52.92a2.42,2.42,0,0,0-2.76,1.36,2.35,2.35,0,0,0-.13,1.56L138.64,414.4a2.41,2.41,0,0,0-4.5-.25,2.4,2.4,0,0,0,.33,2.5L51.54,488.72a3.66,3.66,0,0,0-1.2-.88,3.64,3.64,0,0,0-3,6.65,3.57,3.57,0,0,0,3.28-.2L184,712.86a2.42,2.42,0,1,0,3.43.82l173.45-103,98.9,35.28a2.41,2.41,0,1,0,3.61-1.29l44-72.54L646,617.36a2.41,2.41,0,1,0,3.3-1.54,1.6,1.6,0,0,0-.31-.1l26.06-101.55a2.41,2.41,0,0,0,2.71-1.39,2.38,2.38,0,0,0-.08-2.13l84.37-50.79a2.39,2.39,0,0,0,1.06.92,2.42,2.42,0,0,0,2-4.42,2.32,2.32,0,0,0-.61-.17l10.08-90.27a4,4,0,1,0,.55-8l1.07-41.61,37.89-4a2.41,2.41,0,0,0,4.59.65,2.42,2.42,0,0,0-1.22-3.2,2.46,2.46,0,0,0-1.53-.14L780.46,177.09a2.39,2.39,0,0,0,1.51-1.31,2.42,2.42,0,1,0-4.42-2,2.13,2.13,0,0,0-.11.33L723,160.87,672.59,79.38a2.28,2.28,0,0,0,.86-1,2.41,2.41,0,1,0-4.41-2,2.31,2.31,0,0,0-.1,1.65L551.88,116.56a4.76,4.76,0,0,0-2.55-2.79,4.83,4.83,0,0,0-6.36,2.47l-.08.21L425.84,75a2.41,2.41,0,0,0-4.5-1.7,2.45,2.45,0,0,0,.11,2.18l-152.3,94.28a2.49,2.49,0,0,0-1-.87A2.43,2.43,0,0,0,264.93,170.13Zm225,26.4-66.23,90.64a4.73,4.73,0,0,0-.66-.38,3.94,3.94,0,0,0-1.52-.34L423.61,76.7a2.41,2.41,0,0,0,1-.26ZM247.17,384.89,402,410.78a2.45,2.45,0,0,0,0,.27l-134.76,2-20.9-26.82a2.51,2.51,0,0,0,.66-.87A2.21,2.21,0,0,0,247.17,384.89Zm-.95,1.47,20.83,26.72-76.82,1.16,52.5-28.6a2.51,2.51,0,0,0,1.1,1A2.4,2.4,0,0,0,246.22,386.36Zm151.22,150.2a2.42,2.42,0,0,0,.1-.36l40.67,13.29,3.21,13.1-22.08,13.12-22.9-37.93A2.43,2.43,0,0,0,397.44,536.56Zm364.51-79-39.66-16,22.48-33.9,18.46,48.68A2.36,2.36,0,0,0,762,457.54Zm9.33-97.27a1.86,1.86,0,0,0-.12.38l-48.74-12.41-9.61-25.34,28.28-3,31.25,38.93A4,4,0,0,0,771.28,360.27ZM551.12,312a2.42,2.42,0,0,0,0,1.92L490,343.12A2.43,2.43,0,0,0,488.8,342a2.46,2.46,0,0,0-.29-.09l26.24-99.72,37.35,68.71A2.32,2.32,0,0,0,551.12,312ZM354,502.59l49.34-89.33.14.08a2.09,2.09,0,0,0,.69.19l-9.27,118.75a2.55,2.55,0,0,0-2.46,1Zm38.33,30.76a3.06,3.06,0,0,0-.26.51,2.75,2.75,0,0,0-.17.89l-52.05-6.55,14.07-25.46Zm81-17.55,5.3-62.23,70.55,40.32-.18.35a4.8,4.8,0,0,0-.3,3Zm75.41-18.38a4.68,4.68,0,0,0,.46,1.16L470.8,545.14,473.28,516ZM665.37,358.55a2.3,2.3,0,0,0,.2-.8l61.19,2.41,1.64,4.33L559.22,374a.76.76,0,0,1,0-.15L660.79,358a2.41,2.41,0,0,0,4.58.52ZM559.19,373.63a4.18,4.18,0,0,0-.32-1l86.48-41.43a3.53,3.53,0,0,0,1.74,1.69,3.61,3.61,0,0,0,4.76-1.86,4.2,4.2,0,0,0,.17-.5l70.27,17.89,4.4,11.61-61.11-2.41a2.42,2.42,0,0,0-1.43-2.22,3.45,3.45,0,0,0-.42-.14l-.17,0a2.4,2.4,0,0,0-2.61,1.39,2.44,2.44,0,0,0-.18,1.27Zm125.25-120a3.58,3.58,0,0,0,1.84-.16l8.25,21.74-43.69,51.53a4,4,0,0,0-.68-.44l33.48-72.9a3.88,3.88,0,0,0,.63.21Zm-2.64-5a3.63,3.63,0,0,0,0,2.94l-27.29,13,3.62-40.22,24.31,23.29A3.65,3.65,0,0,0,681.8,248.57ZM551.22,121,623.32,173l-6,12L550.9,121.42A4.16,4.16,0,0,0,551.22,121Zm66,64.13-19.28,38.51L549.47,122.52a5,5,0,0,0,1.31-1Zm6.25-12.1,36.72,26.45L658,224l-40.56-38.84ZM658,224.18l-3.63,40.45-29.91,14.29L598,223.87l19.31-38.59ZM486,345.81a2.35,2.35,0,0,0,.84.64,2.49,2.49,0,0,0,.7.18L484,388l-17.18-26.78ZM466.74,361l-43.12-67.21a3.64,3.64,0,0,0,.82-.75l61.46,49.72a2.46,2.46,0,0,0,0,2.88Zm82.79,132.26-.1.13a3.37,3.37,0,0,0-.19.32l-70.63-40.36,5.24-61.6,2.09-.51,64.75,100.92A4.65,4.65,0,0,0,549.53,493.29Zm2-120.74L490,345.12a2.42,2.42,0,0,0,.18-1l63.8-6,1,32.13A4,4,0,0,0,551.57,372.55Zm1.91-57.16a2.42,2.42,0,0,0,2.06-1.42,2.3,2.3,0,0,0,.15-.49L645,329a3.15,3.15,0,0,0,0,.43l-90.8,8.5Zm2-3.4,68.81-32.85,22.61,47.18a3.63,3.63,0,0,0-1.66,1.75,4.19,4.19,0,0,0-.24.76l-89.33-15.52A2.4,2.4,0,0,0,555.52,312Zm69-32.92,29.82-14.24-5.49,61.09a3.49,3.49,0,0,0-1.72.33ZM645.28,331,558.8,372.44a4,4,0,0,0-1.95-1.86,3.83,3.83,0,0,0-1.68-.34l-1-32.14L645,329.6A3.76,3.76,0,0,0,645.28,331Zm-94,44.12L506,386.19,488.85,346.4a2.41,2.41,0,0,0,1.11-1.12L551.5,372.7A4.08,4.08,0,0,0,551.28,375.13Zm-45.37,11.26L551.37,491.8a4.63,4.63,0,0,0-.54.29L486.12,391.23Zm-22,5.21.27-3.14,1.71,2.66Zm.29-3.42,3.54-41.53a2.39,2.39,0,0,0,1-.18l17.15,39.76L486,391.08ZM490,343.27l61.16-29.2a2.38,2.38,0,0,0,1.17,1.13,2.33,2.33,0,0,0,1,.2L554,338l-63.81,6A2.15,2.15,0,0,0,490,343.27Zm64.46-32.39,43.45-86.83L624.25,279l-68.8,32.86A2.27,2.27,0,0,0,554.48,310.88Zm127.39-59.21a3.49,3.49,0,0,0,1.62,1.62L650,326.19a3.52,3.52,0,0,0-1-.25l5.5-61.19Zm4.57,1.71a3.56,3.56,0,0,0,.82-.49L700,268.75,694.66,275Zm8.16,22,18,47.38-60.44,6.32a3.55,3.55,0,0,0-1.16-2.24Zm.12-.15,5.38-6.34L741,319.79l-28.21,2.95Zm17.91,47.7,9.58,25.27-70.14-17.86a3.64,3.64,0,0,0,.07-1.09l17.07-1.78.18,0ZM555.06,378.29l-1.71,113.06a4.9,4.9,0,0,0-1.82.38L506.08,386.35l45.25-11.06a4,4,0,0,0,2.24,2.66A4.19,4.19,0,0,0,555.06,378.29ZM473.12,515.84l-40.52,10L405.12,413.48a2.37,2.37,0,0,0,1.42-1.09l71.89,41.08ZM406.81,410.61l76.87-18.79-5.23,61.47-71.83-41.05.06-.11A2.49,2.49,0,0,0,406.81,410.61Zm-.05-.17a2.57,2.57,0,0,0-.38-.78l60.32-48.38L484,388.22l-.3,3.43Zm-.49-.92a2.5,2.5,0,0,0-.86-.67,2.6,2.6,0,0,0-.54-.17l16-114.21a4.05,4.05,0,0,0,2.58-.55l43.12,67.22Zm17.55-122.24L490,196.69,514.63,242l-26.28,99.88a2.43,2.43,0,0,0-2.34.79l-61.46-49.72a3.64,3.64,0,0,0,.51-.82A4,4,0,0,0,423.82,287.28Zm129.52,23.29-5.63-182.44-.16-5.11a4.84,4.84,0,0,0,1.76-.43l48.53,101.27-43.51,86.93,0,0A2.51,2.51,0,0,0,553.34,310.57ZM552,119.34l87.48,21.33L623.39,172.8l-72.08-51.92a4.44,4.44,0,0,0,.42-.74A4.71,4.71,0,0,0,552,119.34Zm87.64,21.37,25.27,6.16-4.72,52.44L623.53,172.9Zm25.44,6.2,11.89,2.9,5.23,65.35-21.85-15.74Zm17.14,68.47,2.49,31.06a3.65,3.65,0,0,0-2.16,1.05l-24.42-23.38,2.21-24.49Zm.18.13,24.12,17.38-18.66,14.83a3.42,3.42,0,0,0-3-1.29ZM706.66,233l14.68,10.57L700.1,268.61l-12.7-15.83a3.78,3.78,0,0,0,1-1.28,3.64,3.64,0,0,0-.41-3.64Zm.15-.11,40.62-32.28,4.36,7.05-30.34,35.78Zm45.07-25.08,25.87,41.78-.87,33.77-55.29-39.82Zm26,42L815.13,310a2.51,2.51,0,0,0-.56.52l-37.52-27ZM776,316.12l-34.87,3.65-40.95-51,21.27-25.09,55.39,39.9Zm-4.93,44.69a4.13,4.13,0,0,0-.16.92L726.88,360l-4.39-11.57Zm-.17,1.09c0,.08,0,.15,0,.21l-42.37,2.37-1.64-4.31Zm-42.47,2.76,16.23,42.79-22.56,34L559,375.7a4,4,0,0,0,.26-1.58ZM676.88,509.75l-.28-.16a2.38,2.38,0,0,0-2.51.38L557.93,377.24a3.94,3.94,0,0,0,1-1.33s0,0,0,0L722,441.63Zm-3.63,1.69-68.9-8.81L556.72,378a4,4,0,0,0,1.07-.65L674,510.08a2.13,2.13,0,0,0-.53.75A2.66,2.66,0,0,0,673.25,511.44Zm-69.09-8.84-46-5.88a4.79,4.79,0,0,0-4.62-5.37l1.71-113.06a4,4,0,0,0,1.33-.23Zm-53.39-2.31-43.43,71.59-37.77-12.33,1.21-14.2,78.47-46.62A4.81,4.81,0,0,0,550.77,500.29Zm-81.36,59.2-14.48-4.72,15.67-9.32Zm-14.69-4.79-16.36-5.35L432.64,526l40.47-10-2.49,29.23Zm-.2.11-12.94,7.69-3.17-13ZM397.59,536a3.12,3.12,0,0,0-.1-1.42l35-8.6,5.7,23.27Zm-.15-1.58a3.35,3.35,0,0,0-1.65-1.9,2.8,2.8,0,0,0-.72-.25l9.27-118.75a2.47,2.47,0,0,0,.61,0l27.48,112.33Zm-4.8,2.49-69.85,59.91-14.07-5a3.76,3.76,0,0,0-.36-3l84.11-52.13Zm-84.37,51.77a3.6,3.6,0,0,0-1.2-1.16l32.7-59.2,52.13,6.56a3.17,3.17,0,0,0,.48,1.66Zm-1.34-1.25-.24-.15a3.76,3.76,0,0,0-1.25-.31l2-62.72,32.19,4.05Zm.47-63.36,1.71-54.79a2.46,2.46,0,0,0,1.82-.85l42.86,34.16-14.11,25.55Zm2.69-59.42a2.42,2.42,0,0,0-2.4.26l-21.2-27.2,115.63-26a2.48,2.48,0,0,0,1.08,1.46l-49.33,89.31L311,468.34a2.07,2.07,0,0,0,.27-.45A2.41,2.41,0,0,0,310.09,464.69Zm-23.72-27.1-19-24.34,134.63-2a3.11,3.11,0,0,0,0,.32Zm116.92-28.68L342.84,303.25l74.57-12a3.92,3.92,0,0,0,3.32,3.24l-13.32,94.92,0,.19-2.68,19.1A2.44,2.44,0,0,0,403.29,408.91ZM544.36,122,490,196.37l-65.25-120a2.47,2.47,0,0,0,1-1.1l0-.09,117,41.43A4.82,4.82,0,0,0,544.36,122Zm1.62.84L514.69,241.75l-24.58-45.21,54.38-74.43a5.16,5.16,0,0,0,.88.51A5.65,5.65,0,0,0,546,122.84Zm1.4.19,5.78,187.56a2.24,2.24,0,0,0-.91.24L514.81,242l31.33-119.09A4.39,4.39,0,0,0,547.38,123ZM670.1,79.49l-30.55,61L552,119.17a4.72,4.72,0,0,0-.11-2.45L669,78.22A2.43,2.43,0,0,0,670.1,79.49Zm.84.28-6,66.93-25.2-6.15,30.52-61h0A2.25,2.25,0,0,0,670.94,79.77Zm.41,0,5.6,69.85-11.85-2.89,6-66.95Zm51.45,81-45.67-11.14-5.61-69.9a2.43,2.43,0,0,0,.92-.3Zm.13.21,24.41,39.43-40.68,32.33-24.28-17.49-5.24-65.44Zm54.89,15.2-30.35,24.12-24.31-39.26,54.23,13.22A2.42,2.42,0,0,0,777.82,176.22Zm.32.35L751.9,207.51l-4.34-7,30.37-24.13A2.08,2.08,0,0,0,778.14,176.57Zm1.47.63-1.85,72.07L752,207.66l26.27-31a2.8,2.8,0,0,0,.5.31A2.51,2.51,0,0,0,779.61,177.2Zm36.16,132.48a2.13,2.13,0,0,0-.49.21l-37.36-60.35,1.86-72.34a2.24,2.24,0,0,0,.52-.06Zm-39.56,6.43.83-32.43,37.43,27a2.23,2.23,0,0,0-.39,1.5ZM775,357.89a4,4,0,0,0-2.49.88l-31.18-38.85L776,316.3Zm-2.28,7.34-27.87,42-16.17-42.63L771,362.28A4,4,0,0,0,772.68,365.23Zm-8.35,90.94a2.29,2.29,0,0,0-.94.1l-18.51-48.8,28-42.15a4.76,4.76,0,0,0,.49.28,4,4,0,0,0,1.09.3ZM677.65,510.5a2.29,2.29,0,0,0-.62-.66l45.16-68.14,39.69,16a2.42,2.42,0,0,0,.13,2ZM647.57,615.75,604.42,502.81l68.81,8.8a2.39,2.39,0,0,0,1.4,2.41,1.76,1.76,0,0,0,.3.1L648.87,615.66A2.39,2.39,0,0,0,647.57,615.75Zm-.63.33L556.39,499.94a5,5,0,0,0,1.36-1.79,4.87,4.87,0,0,0,.36-1.26l46.11,5.89,43.19,113A2,2,0,0,0,646.94,616.08ZM507.5,571.94l43.42-71.56c.15.09.31.17.47.25a4.81,4.81,0,0,0,4.87-.59l90.55,116.14a2.47,2.47,0,0,0-.67.86c0,.05,0,.11,0,.16Zm-45.14,72.32,7.19-84.54L507.24,572l-44,72.52-.19-.11A2.58,2.58,0,0,0,462.36,644.26Zm-.78,0-20-81.61,13.12-7.79,14.65,4.79-7.2,84.57A2.47,2.47,0,0,0,461.58,644.28Zm-.68.26-41.47-68.69,22-13.08,20,81.56A2.36,2.36,0,0,0,460.9,644.54Zm-99.83-34,58.21-34.58,41.47,68.69a2.36,2.36,0,0,0-.89,1,.38.38,0,0,1,0,.1Zm-.21-.07L323,596.93l69.76-59.85a3.5,3.5,0,0,0,1,.78,2.73,2.73,0,0,0,2.55,0l22.9,37.94ZM187.22,713.38,322.83,597.06l37.85,13.5-173.34,103Zm-.15-.18L302.79,593.36a3.44,3.44,0,0,0,1,.7,3.54,3.54,0,0,0,4.8-1.81c0-.08,0-.16.08-.24l14,5L187.12,713.25ZM50.81,494.2a3.69,3.69,0,0,0,1.34-1.57.32.32,0,0,1,0-.09l249.61,96.91a3.79,3.79,0,0,0,.87,3.79L186.94,713.08a2.23,2.23,0,0,0-.62-.41,2.4,2.4,0,0,0-2.17.1Zm1.49-2,254.93,32.09-2,62.73a3.53,3.53,0,0,0-3.38,2.15c0,.05,0,.1-.05.14L52.23,492.38A1.72,1.72,0,0,0,52.3,492.17Zm.14-1.26,254.27-23.7a2.42,2.42,0,0,0,1.41,1.9,2.46,2.46,0,0,0,.83.2l-1.72,54.78L52.35,492A3.36,3.36,0,0,0,52.44,490.91Zm0-.46L286.3,437.79l21.26,27.26a2.29,2.29,0,0,0-.66.87,2.32,2.32,0,0,0-.2,1.12L52.43,490.75C52.42,490.65,52.41,490.55,52.39,490.45Zm-.33-.94,137.85-75.09,77.27-1.17,19,24.39L52.35,490.29A4.3,4.3,0,0,0,52.06,489.51Zm86.49-73.39a2.21,2.21,0,0,0,.21-.93l50.78-.77L52,489.36a3.45,3.45,0,0,0-.35-.5l82.94-72.07a2.47,2.47,0,0,0,.78.56A2.42,2.42,0,0,0,138.55,416.12Zm104.1-30.63-52.79,28.76-51.11.77a2.44,2.44,0,0,0-.07-.46l103.83-29.41C242.55,385.26,242.6,385.37,242.65,385.49ZM260,329.2a2.4,2.4,0,0,0,2.59-1.06l139.67,81.79c0,.05-.06.09-.08.14a2.55,2.55,0,0,0-.15.54L247.19,384.72a2.41,2.41,0,0,0-1.4-2.52,2.67,2.67,0,0,0-.26-.09Zm40.27-17.64,102.31,97.9a2.43,2.43,0,0,0-.24.32L262.71,328a.83.83,0,0,0,.09-.16,2.36,2.36,0,0,0,0-1.86l34.64-15a1.85,1.85,0,0,0,.87.94A1.63,1.63,0,0,0,300.3,311.56Zm42.36-8.28L403.14,409a2.24,2.24,0,0,0-.42.34l-102.31-97.9,0-.06.08-.14a2,2,0,0,1,.11-.2,2.1,2.1,0,0,0,.12-1ZM268.42,173.17a2.32,2.32,0,0,0,.57-.51L418.14,288.08a3.39,3.39,0,0,0-.45.76,4,4,0,0,0-.3,2.2l-74.64,12Zm.82-3.25,152.3-94.29a2.41,2.41,0,0,0,1,.87,2.5,2.5,0,0,0,.88.2l-2.11,209.76a4,4,0,0,0-3.08,1.49L269.11,172.53a3.62,3.62,0,0,0,.24-.43A2.39,2.39,0,0,0,269.24,169.92Z"/><path class="cls-2" d="M164.27,497.37a2.66,2.66,0,0,0,4.64-.82l0-.19a2.79,2.79,0,0,0,.07-.58L333.3,492,318,535.88a2.13,2.13,0,0,0-1.82.26,1.89,1.89,0,0,0-.69.93l0,.18a1.9,1.9,0,0,0,.41,1.59,2.16,2.16,0,0,0,1.33.76l-3.66,41.29a2.65,2.65,0,1,0,1.48,4.75,2.18,2.18,0,0,0,.22-.21l43.51,41.68a2.67,2.67,0,0,0-.13,3.39,2.7,2.7,0,0,0,1.44.94L334.1,747.09a2.65,2.65,0,1,0,0,5.2l26.21,117.79a4,4,0,1,0,3.4,7,3.93,3.93,0,0,0,1.52-3.28L646,859.39a2.66,2.66,0,1,0,2.59-2.88l-8.79-221.4,85.8-77a2.65,2.65,0,1,0,.65-4.17l-47-80.45L795.48,363.26a2.65,2.65,0,1,0,.24-4,2,2,0,0,0-.26.24L711,281.24a2.66,2.66,0,0,0-2-4.38l-4.92-108a2.65,2.65,0,1,0-1.8-4.75,2.58,2.58,0,0,0-.49.5l-81.9-56.95a4.42,4.42,0,0,0-6.36-6,4.35,4.35,0,0,0-1.1,1.25L572.81,80.1l16-38.66a2.65,2.65,0,1,0-.69-4.59,2.6,2.6,0,0,0-.94,1.4L440.64,3.18a2.65,2.65,0,1,0-4.7,1.09,2.43,2.43,0,0,0,.26.29L394.93,50.15,289.86,56.24a2.7,2.7,0,0,0-.53-1.36,2.65,2.65,0,1,0-4.21,3.23,2.61,2.61,0,0,0,1.54,1l-24,133.17a5.25,5.25,0,0,0-5,8.44c0,.06.1.13.16.19L156.58,292.23a2.65,2.65,0,1,0-1.84,4.49l11.39,196.39a2.56,2.56,0,0,0-1.37.53A2.67,2.67,0,0,0,164.27,497.37ZM307.43,293.92l52.9,111.37a4.48,4.48,0,0,0-.72.44,4.42,4.42,0,0,0-1.12,1.29L157.05,295.27a2.68,2.68,0,0,0,.28-1.11Zm54.94,332.93,106-136,.24.16L400.1,622.19l-36.84,6.16a2.54,2.54,0,0,0-.89-1.5Zm.92,1.68L400,622.4l-39.06,74.79-.16-65.66a2.64,2.64,0,0,0,2.52-3Zm224.14-67.47a3.76,3.76,0,0,0-.29-.28l34.1-32.33,14.33,3.76,1.12,28.18-48.6,2.28A2.82,2.82,0,0,0,587.43,561.06ZM701.77,167.75,665.6,197.68l-21-39.44,56.66,7.63A2.63,2.63,0,0,0,701.77,167.75Zm-89-59.89c.09.11.2.21.3.31l-37.47,40.58-29.49-4L558,115.92l53.93-9.81A4.41,4.41,0,0,0,612.72,107.86ZM451,295.21a2.62,2.62,0,0,0,1.84,1L449,370.56a2.63,2.63,0,0,0-1.66.53,2.73,2.73,0,0,0-.25.23l-82.56-77.49,85.88-.14A2.63,2.63,0,0,0,451,295.21Zm80.94,290-60.45-94.37a.75.75,0,0,0,.15-.09,2.38,2.38,0,0,0,.54-.56L582,561.28a2.76,2.76,0,0,0-.37,2.86Zm49.77-20.93a2.5,2.5,0,0,0,.35.52,2.92,2.92,0,0,0,.77.63l-33.55,46.83L532,585.4ZM607.06,477l-57.33-37.67,75.84-47.05.25.36a5.28,5.28,0,0,0,2.76,1.87Zm21.69-82.44a4.87,4.87,0,0,0,1.36.16l4,100-26.86-17.65ZM555.67,209.23a2.58,2.58,0,0,0-.67-.61l34.33-57.82,5,.67L515,319.79l-.15-.07,37.89-106.34a2.68,2.68,0,0,0,2.43-.43A2.65,2.65,0,0,0,555.67,209.23Zm-41,110.42a3.8,3.8,0,0,0-1.17-.23l5.23-105.18a3.93,3.93,0,0,0,2.53-.79,4,4,0,0,0,.7-5.58c-.12-.15-.26-.28-.39-.42l54-58.5,13.51,1.82-34.29,57.75a2.65,2.65,0,0,0-2.89.22,3.75,3.75,0,0,0-.35.33l-.12.15a2.66,2.66,0,0,0,0,3.25,2.71,2.71,0,0,0,1.13.84ZM464.3,135.92a3.87,3.87,0,0,0,.8-1.86l25.31,3.41,26.91,69.14a3.74,3.74,0,0,0-.78.43l-52.88-70.47a4.18,4.18,0,0,0,.53-.5Zm-6.24-.07a4,4,0,0,0,2.83,1.54l-1.69,33.18L422.26,146l35.21-11.31A4,4,0,0,0,458.06,135.85ZM266.59,195.23l87.86-42.46,8.48,12.12-96.12,30.86A4.77,4.77,0,0,0,266.59,195.23ZM363,165.05l27.11,38.75-123-6.1a5.19,5.19,0,0,0-.26-1.78Zm-8.41-12.36,44.75-21.63L421.83,146l-58.72,18.85ZM422,146.11l37.16,24.67-1.85,36.35-67-3.31L363.22,165Zm27.51,229.68a2.57,2.57,0,0,0,1-.48,2.47,2.47,0,0,0,.54-.58l38.06,25-34.84,2.58Zm4.63,26.55-87.45,6.49a4.41,4.41,0,0,0-.29-1.19l80.15-33.35a2.62,2.62,0,0,0,.3.51,2.67,2.67,0,0,0,2.47,1Zm171-10.78.08.17c.06.12.13.24.2.36l-75.91,47.09L492.82,401.9l.6-2.29,131.31-9.74A5.31,5.31,0,0,0,625.19,391.56ZM509.66,326.44,451,371.53a2.68,2.68,0,0,0-.91-.71l27.6-64.74,31.54,15.85A4.41,4.41,0,0,0,509.66,326.44Zm-54.19-31.73a2.68,2.68,0,0,0-.3-2.73,2.54,2.54,0,0,0-.39-.41l61.71-78.15a2.76,2.76,0,0,0,.39.28L477.6,305.83ZM453.26,291l4.26-83.63,57.39,2.85a4,4,0,0,0,.81,2.5,3.7,3.7,0,0,0,.62.63l-61.71,78.15A2.57,2.57,0,0,0,453.26,291Zm4.27-83.81,1.84-36.25,56.12,37.26a3.87,3.87,0,0,0-.58,1.83Zm61,7.08-5.22,105.18a4.36,4.36,0,0,0-2.82.9,4.41,4.41,0,0,0-1.21,1.45l-31.54-15.85L517,213.79A4.09,4.09,0,0,0,518.56,214.23ZM512,328.07l-13,49.51-47.41-4.24a2.67,2.67,0,0,0-.49-1.66l58.66-45.09A4.39,4.39,0,0,0,512,328.07Zm-12.86,49.71L624.72,389a5,5,0,0,0,0,.67l-131.24,9.74Zm-6.5,24-2.89-1.9,3.46-.26Zm-3.15-2.07-38.26-25.14a2.79,2.79,0,0,0,.36-1.05L499,377.76l-5.69,21.68Zm-40.3-29.15L453,296.24a2.65,2.65,0,0,0,2.4-1.36L477.52,306l-27.6,64.74A3,3,0,0,0,449.2,370.57Zm2.43-79.19L390.52,204l66.81,3.31L453.07,291A2.61,2.61,0,0,0,451.63,291.38Zm9.45-154a3.91,3.91,0,0,0,2.42-.72l52.88,70.47a3.9,3.9,0,0,0-.78.85l-56.21-37.31Zm4.05-3.52a4.11,4.11,0,0,0-.05-1l22-4,3.29,8.44Zm25.5,3.62,55.16,7.43L520.27,206.6a3.89,3.89,0,0,0-2.77,0Zm-.08-.2-3.31-8.51L557.77,116l-11.91,28.79ZM546,145l29.41,4-53.93,58.4a3.68,3.68,0,0,0-1-.65l7.21-17.42.08-.18ZM517,326.08l108.29,60.78a5.43,5.43,0,0,0-.59,2L499.2,377.6l13-49.49a4.39,4.39,0,0,0,3.74-.77A4.69,4.69,0,0,0,517,326.08Zm90,151.07L595.44,521.5,472.59,489.28a2.61,2.61,0,0,0-.31-1.94l77.27-47.94Zm-136.31,9,22.07-84.05,56.61,37.2-77.2,47.89-.08-.12A2.72,2.72,0,0,0,470.7,486.14Zm-.18,0a2.82,2.82,0,0,0-1,0l-15.17-83.55,35.06-2.6L492.6,402Zm-1.15,0a2.83,2.83,0,0,0-1.1.48,3,3,0,0,0-.44.43L365.92,411.79a4.43,4.43,0,0,0,.82-2.78l87.46-6.49ZM360.5,405.21,307.64,293.92l56.62-.09L447,371.45a2.62,2.62,0,0,0-.45,2.67l-80.16,33.35a4,4,0,0,0-.53-.92A4.42,4.42,0,0,0,360.5,405.21Zm90.24-112.89-179.13-90-5-2.51a5.2,5.2,0,0,0,.5-1.93L390.28,204l61.19,87.47,0,0A2.54,2.54,0,0,0,450.74,292.32ZM265.37,193.59l66.35-73.31,22.62,32.33-87.83,42.45a6.13,6.13,0,0,0-.5-.79A5.91,5.91,0,0,0,265.37,193.59Zm66.48-73.45L351,99l48.16,32-44.67,21.59Zm19.29-21.32,9-10L426,118l-26.62,12.86Zm75.09,19.26,31.29,13.84a4,4,0,0,0-.11,2.64L422.06,145.9,399.56,131Zm.22-.11,29.39-14.2,4.57,25.78a3.86,3.86,0,0,0-1.65.72,3.94,3.94,0,0,0-1.16,1.48ZM456,103.68,473.9,95,487,128.65l-21.93,4a4.11,4.11,0,0,0-.73-1.61,4,4,0,0,0-3.73-1.51Zm0-.19-9.93-56.11,9.1-.53,18.68,48Zm-.63-56.65,53.87-3.12,32.16,18.5L474,94.78Zm54.21-3.14,77.54-4.5a2.36,2.36,0,0,0,.21.82l-45.73,22.1Zm63,36.48-14.72,35.57-70.69,12.87L474.07,95l67.5-32.63Zm40.57,28.13a5,5,0,0,0,.81.64L589.23,150.6l-13.46-1.82Zm1,.74.21.09L594.45,151.3l-5-.68ZM594.57,151.5l49.81,6.71,21.06,39.59L516.58,321a4.36,4.36,0,0,0-1.39-1.08ZM707.7,277.2a3,3,0,0,0-.3.18,2.64,2.64,0,0,0-1,2.63L517.52,322.76a4.42,4.42,0,0,0-.78-1.64s0,0,0,0L665.53,198Zm-.27,4.38-44.55,61.94-145.26-19.2a4.59,4.59,0,0,0-.07-1.38l188.93-42.75a2.76,2.76,0,0,0,.45.91A2.51,2.51,0,0,0,707.43,281.58Zm-44.67,62.11L633,385.05a5.23,5.23,0,0,0-7.59,1.65L517.12,325.92a4.27,4.27,0,0,0,.47-1.41ZM632.6,394,679,473.42l-31.67,30-13.07-8.59-4-100.16A5.11,5.11,0,0,0,632.6,394Zm14.62,109.54-12.14,11.5-.8-20ZM634.9,515.25l-13.72,13-25.56-6.7,11.55-44.28L634.09,495Zm0,.25.65,16.52L621.4,528.3ZM587,560.65a3.48,3.48,0,0,0-1.42-.65l10-38.28L621,528.4Zm-1.6-.68a3.65,3.65,0,0,0-2.7.6,3.28,3.28,0,0,0-.61.56L472.26,490.07a2.8,2.8,0,0,0,.28-.61l122.85,32.22Zm-.11,5.93,21.33,98.8-12.21,10.95a4.18,4.18,0,0,0-3.07-1.21L585,566Zm5.87,108.55a4.27,4.27,0,0,0-1.75.55l-40.06-62.53L583,565.56a3.57,3.57,0,0,0,1.85.41Zm-1.91.65-.27.16a4,4,0,0,0-1,1L528.48,641.6l20.75-29Zm-60.93-33.6-52-30.31a2.72,2.72,0,0,0,.13-2.2l55.4-23.52,17.29,27Zm-56-33.67a2.63,2.63,0,0,0-1,2.45L434,616.53l35.34-125.28a2.8,2.8,0,0,0,2-.28l60.44,94.34-55.37,23.51a2.55,2.55,0,0,0-.3-.5A2.66,2.66,0,0,0,472.34,607.83Zm-38.57,8.73-33.44,5.59,68.46-131.07.34.13Zm33.45-127.91-133.65,3.11,27.37-78.3a4.42,4.42,0,0,0,4.08-.7,4.37,4.37,0,0,0,.79-.82l84.69,62.51.17.13,17.05,12.58A2.61,2.61,0,0,0,467.22,488.65ZM264,202.36l43.4,91.37-150,.24a2.59,2.59,0,0,0-.54-1.52l-.08-.08L257.94,201A5.3,5.3,0,0,0,264,202.36Zm1.65-1.12,98.46,92.4-56.51.09-43.43-91.44a4.77,4.77,0,0,0,1.48-1Zm.92-1.25L450.66,292.5a2.71,2.71,0,0,0-.24,1l-86.08.14L265.73,201.1A5.24,5.24,0,0,0,266.52,200ZM288.66,58.71l42.95,61.41-66.38,73.34a5.21,5.21,0,0,0-2.42-1.17l24-133.17A2.65,2.65,0,0,0,288.66,58.71Zm.71-.68,61.49,40.82L331.74,120,288.82,58.61h0A2.6,2.6,0,0,0,289.37,58Zm.23-.38L360,88.77l-9,9.94-61.5-40.83Zm105.16-7.3L360.11,88.63,289.68,57.48a2.91,2.91,0,0,0,.19-1Zm.26,0,50.85-3,9.94,56.18-29.58,14.3L360.29,88.71Zm43.4-45.06,7.41,41.92L395.2,50.14,436.34,4.68A2.63,2.63,0,0,0,438.42,5.28Zm.5-.13,16.16,41.52-9.06.52L438.6,5.24Zm1.37-1.09,68.63,39.48-53.65,3.12L439.09,5.09a2.72,2.72,0,0,0,.57-.33A2.6,2.6,0,0,0,440.29,4.06ZM587.14,38.43a2.28,2.28,0,0,0,0,.58l-77.83,4.52L440.39,3.89a2.41,2.41,0,0,0,.2-.53ZM572.65,80,541.78,62.24l45.61-22.05a2.2,2.2,0,0,0,.24.38,2.58,2.58,0,0,0,1,.79Zm39.7,23.06a4.44,4.44,0,0,0-.46,2.86l-53.81,9.79,14.66-35.44Zm5.9,6,26,48.9-49.62-6.68,19.86-42.1A4.42,4.42,0,0,0,618.25,109.1Zm83.44,55.63a2.44,2.44,0,0,0-.39,1L644.5,158l-26.09-49c.18-.11.36-.21.53-.33a4.92,4.92,0,0,0,.86-.91Zm7.13,112.12a2.48,2.48,0,0,0-1,.25l-42.18-79.25,36.21-30a2.67,2.67,0,0,0,2,.93Zm85.91,84.09L663.09,343.55l44.49-61.86a2.63,2.63,0,0,0,3.06-.08,2.89,2.89,0,0,0,.25-.24l84.44,78.27A2.51,2.51,0,0,0,794.73,360.94Zm0,.78-159.52,26.7a5.36,5.36,0,0,0-2-3.26L663,343.72l131.74,17.4A2.41,2.41,0,0,0,794.71,361.72ZM679.16,473.28l-46.39-79.35a4.45,4.45,0,0,0,.48-.32,5.27,5.27,0,0,0,2-5l159.51-26.7a2.72,2.72,0,0,0,.49,1.1l.12.13Zm46.22,81.42-77.86-51.16,31.59-30,47,80.41-.21.13A2.64,2.64,0,0,0,725.38,554.7Zm-.38.77-89.25-23.4-.66-16.75,12.29-11.65,77.9,51.19A2.8,2.8,0,0,0,725,555.47Zm-.11.79-88,4.13-1.12-28.13,89.2,23.4A2.46,2.46,0,0,0,724.89,556.26Zm-85.06,78.61-3-74.3,88-4.12a2.66,2.66,0,0,0,.53,1.4l.08.08Zm-.18.16-32.87,29.52-21.31-98.67a3.8,3.8,0,0,0,1.27-.56,3,3,0,0,0,1.35-2.46l48.61-2.28Zm8.58,221.52-41.4-191.79,32.83-29.48,8.78,221.24Zm-.26.05-55.2-174.43a4,4,0,0,0,1.21-.6,3.9,3.9,0,0,0,.76-5.58c-.06-.08-.13-.13-.19-.2l12.12-10.88L648,856.58Zm-282.75,17a3.94,3.94,0,0,0-.81-2.11l-.07-.07L588.47,681.09a4.17,4.17,0,0,0,4.12,1.15l55.2,174.43a2.83,2.83,0,0,0-.73.38,2.66,2.66,0,0,0-1,2.15Zm-1.18-2.5L528.37,641.75l59.54,34.7a3.91,3.91,0,0,0,.31,4.4l.12.11L364.21,871.32Zm-1.14-.79L473,612.41a2.64,2.64,0,0,0,2.57-.37,2.72,2.72,0,0,0,.62-.69l52,30.31L363.91,871A3.63,3.63,0,0,0,362.9,870.35Zm-.47-.2,71.49-253.42,37.44-6.26a2.81,2.81,0,0,0,.49,1.09,2.64,2.64,0,0,0,1,.77L362.73,870.27Zm-1.08-.17-.42-172.39,39.29-75.23,33.49-5.6L362.25,870.11A3.91,3.91,0,0,0,361.35,870ZM335.72,748.07a2.59,2.59,0,0,0-.79-.69L360.74,698l.43,172a5.23,5.23,0,0,0-.68.07L334.28,752.26a2.4,2.4,0,0,0,1-.46A2.66,2.66,0,0,0,335.72,748.07Zm24.86-116.55.16,66-26,49.75a2.64,2.64,0,0,0-.47-.17l25.9-115.65A2.71,2.71,0,0,0,360.58,631.52ZM315.32,585.3a2.66,2.66,0,0,0,.33-3.06l152-92.09a1.19,1.19,0,0,1,.09.15,3.64,3.64,0,0,0,.45.43l-106,136a2.66,2.66,0,0,0-3.17,0l-.22.21Zm4-48.12,148-47.58a3.62,3.62,0,0,0,.19.4l-152,92.08c0-.05-.06-.11-.11-.17a2.63,2.63,0,0,0-1.77-1l3.66-41.28a2,2,0,0,0,1.36-.35A1.79,1.79,0,0,0,319.35,537.18ZM333.51,492l133.71-3.11a2.37,2.37,0,0,0,.11.58L319.27,537s0,0,0-.07l-.1-.16c0-.07-.09-.14-.14-.2a2.26,2.26,0,0,0-.89-.64ZM169,495.59a2.72,2.72,0,0,0-.2-.83L358.3,411.12a4.69,4.69,0,0,0,.5.83,4.37,4.37,0,0,0,2,1.43l-27.4,78.38Zm-2.71-2.49L154.93,296.71a2.77,2.77,0,0,0,1.38-.53,3,3,0,0,0,.65-.74L358.4,407.18a4.46,4.46,0,0,0-.16,3.76L168.77,494.59a2.22,2.22,0,0,0-.29-.46A2.62,2.62,0,0,0,166.32,493.1Z"/><path class="cls-3" d="M549.65,120a2.42,2.42,0,0,0,.27,4.28l.16.06a2.44,2.44,0,0,0,.52.12l-13.17,149-38.19-18.34a1.91,1.91,0,0,0-.06-1.68,1.63,1.63,0,0,0-.76-.71l-.16-.05a1.74,1.74,0,0,0-1.49.2,2.05,2.05,0,0,0-.82,1.13l-37-7.49a2.41,2.41,0,1,0-4.44.85.94.94,0,0,0,.16.23l-42.13,35.15a2.4,2.4,0,0,0-4,.74l-102-35.14a2.41,2.41,0,1,0-4.7-.53l-109.24,11.8a3.53,3.53,0,0,0-.48-1.41,3.64,3.64,0,0,0-6.23,3.77,3.58,3.58,0,0,0,2.81,1.71L173.27,519.33a2.49,2.49,0,0,0-1.31.34,2.42,2.42,0,1,0,3.66,2.3l201.23,14.46,61,85.44a2.41,2.41,0,1,0,3.71,1l77.56-34.42,88,116.33a2.41,2.41,0,1,0,3.59.62c-.06-.09-.13-.17-.2-.26l79.38-68.47a2.43,2.43,0,0,0,4.17-1.39l98.26,6.49a2.38,2.38,0,0,0,.35,1.35,2.42,2.42,0,1,0,4.14-2.51,3.23,3.23,0,0,0-.41-.49l59.83-68.34a4,4,0,0,0,6-5.15,4.09,4.09,0,0,0-1-1.13L885.89,532l33.36,18.39a2.38,2.38,0,0,0,.08,2.34,2.42,2.42,0,1,0,4.14-2.5,2.39,2.39,0,0,0-1.17-1l46.57-129.06a2.41,2.41,0,1,0-.52-4.36l-.28.21L931,374l5.12-95.7a2.38,2.38,0,0,0,1.3-.35,2.41,2.41,0,1,0-2.5-4.13,2.32,2.32,0,0,0-1,1.3L815.79,239.92a4.73,4.73,0,0,0-.5-3.76,4.83,4.83,0,0,0-6.63-1.6l-.19.13L736.06,133.83a2.41,2.41,0,1,0-3.88-2.12l-178.87-9.57a2.41,2.41,0,0,0-3.66-2.12ZM719.26,270.17,613.12,306.76a4,4,0,0,0-.33-.69,3.85,3.85,0,0,0-1-1.15l121.51-171a2.34,2.34,0,0,0,1,.37Zm-306.83,16L524.77,395.87a1.73,1.73,0,0,0-.17.21L412.82,320.79l-1.85-34a2.35,2.35,0,0,0,1-.33A3.32,3.32,0,0,0,412.43,286.18Zm-1.63.66,1.84,33.83-63.73-42.92,59.44,6.5a2.36,2.36,0,0,0,.34,1.43A2.4,2.4,0,0,0,410.8,286.84ZM449.17,496.5a3.22,3.22,0,0,0,.28-.24l25.8,34.13L470.4,543l-25.62-1.84,2.86-44.21A2.62,2.62,0,0,0,449.17,496.5ZM793.51,639.79,770.09,604l37.81-15-12.64,50.5A2.41,2.41,0,0,0,793.51,639.79Zm63.21-74.52a2.55,2.55,0,0,0-.31.24l-32.93-38,6.58-26.29L855,514.93l3.42,49.79A3.93,3.93,0,0,0,856.72,565.27ZM703.56,399.92a2.4,2.4,0,0,0-1.11,1.56l-66.88-11a2.4,2.4,0,0,0-.31-1.56,2.27,2.27,0,0,0-.18-.25l78.48-66.87L705,399.58A2.36,2.36,0,0,0,703.56,399.92ZM432.91,443.8l91.52-45.15a.94.94,0,0,0,.06.15,2.45,2.45,0,0,0,.46.55l-75.43,92.19a2.5,2.5,0,0,0-2.55-.63ZM446.81,491a2.42,2.42,0,0,0-.5.27,2.6,2.6,0,0,0-.65.63l-39-35.1,26.09-12.87Zm76.48,31.82,39.89-48.06,34.9,73.39a3.9,3.9,0,0,0-.35.19,4.83,4.83,0,0,0-2,2.3Zm72.4,28a5,5,0,0,0-.29,1.22l-90.92-6.54,18.7-22.52Zm175.08-47.37a2.48,2.48,0,0,0,.61-.55l48.85,36.92-1.12,4.49L674.83,455.4l.08-.14,92.39,45.07a2.42,2.42,0,0,0,3.47,3.05ZM675,455.12a3.87,3.87,0,0,0,.33-1L770,469.46a3.5,3.5,0,0,0,.46,2.37,3.61,3.61,0,0,0,5,1.2,4.13,4.13,0,0,0,.42-.31l47.47,54.81-3,12L771.49,502.7a2.4,2.4,0,0,0-.17-3l-.13-.12a2.41,2.41,0,0,0-2.93-.35,2.47,2.47,0,0,0-.88.94Zm171.36-27a3.5,3.5,0,0,0,1.6.92l-5.64,22.56L777,468.94a4.09,4.09,0,0,0-.31-.75l69.12-40.72a3.51,3.51,0,0,0,.4.53Zm.7-5.63a3.62,3.62,0,0,0-1.68,2.41L815.52,420l25.93-30.95,6.67,33A3.46,3.46,0,0,0,847.05,422.48ZM812.7,243.2,842.23,327l-11.83,6.45-18.19-90.11A2.75,2.75,0,0,0,812.7,243.2Zm17.55,90.33-37.82,20.61,18-110.71a5,5,0,0,0,1.63-.05Zm12-6.36,15,42.68-15.77,18.82-11.11-55.05Zm-.88,61.67L815.32,420l-32.71-5.35,9.79-60.26,37.88-20.64Zm-210.63,1.64a2.51,2.51,0,0,0,.33,1,2.79,2.79,0,0,0,.47.55L605.1,423.94l1.18-31.79ZM606.29,392l3-79.8a3.8,3.8,0,0,0,1.11-.14L632.44,388a3.16,3.16,0,0,0-.5.22,2.43,2.43,0,0,0-1.16,2.13Zm-7.56,155.85-.16,0-.34.15L563.3,474.57,602.78,427l2,.77-4.47,119.82A4.78,4.78,0,0,0,598.73,547.83Zm70.62-98-34.86-57.66a2.24,2.24,0,0,0,.73-.74L691,423,673.48,450A4,4,0,0,0,669.35,449.88Zm34.21-45.83a2.39,2.39,0,0,0,2.5,0,2,2,0,0,0,.4-.31l64.47,63.76a3,3,0,0,0-.29.32L691.25,423Zm3.62-1.62,75.24,12.32L774,466.4a3.61,3.61,0,0,0-2.35.48,3.42,3.42,0,0,0-.63.49l-64.47-63.76A2.34,2.34,0,0,0,707.18,402.43Zm75.41,12.35,32.61,5.34-39.4,47a3.56,3.56,0,0,0-1.6-.71ZM770,469.29l-94.66-15.37a3.94,3.94,0,0,0-1.72-3.89l17.54-26.94L770.55,468A3.68,3.68,0,0,0,770,469.29ZM667.64,451.83l-43.48-16.77,8.63-42.47a2.47,2.47,0,0,0,1.56-.28L669.21,450A3.93,3.93,0,0,0,667.64,451.83ZM624,435.17,601.09,547.66a3.17,3.17,0,0,0-.61-.07L605,427.83Zm-21.07-8.31,2-2.43-.12,3.16Zm2.2-2.65,26.62-32.07a2.54,2.54,0,0,0,.91.43L624,435l-19-7.34Zm30.45-33.51,66.88,10.95a2.4,2.4,0,0,0,1,2.31l-12.31,18.9-55.79-31.53A2.08,2.08,0,0,0,635.54,390.7ZM707,400.91l85.25-46.46-9.76,60.13L707.2,402.26A2.38,2.38,0,0,0,707,400.91Zm138.38,24.14a3.57,3.57,0,0,0,.41,2.27L776.63,468a3.87,3.87,0,0,0-.7-.8l39.46-47.09Zm2.78,4a3.77,3.77,0,0,0,1,.07l1.4,20.28-8,2.12Zm-5.86,22.71L830,501l-53.22-29.34a3.5,3.5,0,0,0,.32-2.5Zm.19,0,8-2.13L855,514.73,830.11,501Zm-12.54,49.38-6.56,26.22L776,472.62a3.73,3.73,0,0,0,.69-.86l15,8.29.15.08Zm-161-44.53-66,91.84a4.89,4.89,0,0,0-1.71-.73l22.86-112.46L667.59,452a4,4,0,0,0,.32,3.46A3.86,3.86,0,0,0,668.94,456.58ZM523.12,522.71l-38.95-15,41.59-107.91a2.3,2.3,0,0,0,1.78-.08l35.56,74.78Zm5.66-124.26,73.83,28.48L563.22,474.4l-35.53-74.72.12-.05A2.53,2.53,0,0,0,528.78,398.45Zm.06-.16a2.53,2.53,0,0,0,.13-.86l77.15-5.27-1.2,32-2.19,2.64Zm.12-1a2.39,2.39,0,0,0-.33-1.05,2.07,2.07,0,0,0-.34-.44l78.38-84.61a4,4,0,0,0,2.43,1l-3,79.81Zm84.22-90.34,106.06-36.56-5.65,51.24-78.62,67a2.38,2.38,0,0,0-2.37-.68L610.54,312a3.67,3.67,0,0,0,.89-.38A4,4,0,0,0,613.18,306.92Zm93,93.09,99.56-153,2.79-4.27a4.83,4.83,0,0,0,1.69.65l-18,110.84-85.36,46.52v0A2.51,2.51,0,0,0,706.2,400ZM814.31,242.26l59.62,67.47-31.55,17.19-29.52-83.78a4.84,4.84,0,0,0,.76-.37A4.4,4.4,0,0,0,814.31,242.26Zm59.74,67.6,17.22,19.49L857.45,369.7l-15-42.62Zm17.33,19.62,8.11,9.17-33,56.63-9-25.4Zm-25,66-15.69,26.92a3.61,3.61,0,0,0-2.37-.37l-6.69-33.14L857.39,370Zm.08.21,9.88,28-23.79,1.52a3.62,3.62,0,0,0-.5-1.57,3.47,3.47,0,0,0-1.22-1.19Zm9.94,28.21,6,17.05-31.75,8.44-1.38-20.25a3.74,3.74,0,0,0,1.52-.5,3.62,3.62,0,0,0,1.75-3.22Zm.17,0,51.78-3.3-.44,8.28-45.34,12ZM927.87,429l-2.63,49.07-20,27.23L882.6,441.06Zm-2.64,49.38L921.44,549a2.22,2.22,0,0,0-.76.11l-15.37-43.62Zm-39.39,53.33-30.71-16.92-4.48-65.27,31.78-8.44,22.69,64.38Zm-29.57,33.87a3.8,3.8,0,0,0-.66.67l-35.18-26.6,3-12Zm-.77.8c0,.06-.07.13-.1.18l-36.14-22.25,1.12-4.47Zm-36.44-22L808,588.82l-38,15L673.62,456.69a3.83,3.83,0,0,0,1.12-1.15Zm-125.2,89.65a2.55,2.55,0,0,0-.13-.29,2.4,2.4,0,0,0-2.28-1.13L671.89,457.36a3.93,3.93,0,0,0,1.56-.54l0,0,96.35,147.14Zm-3.93-.69L638.39,586.8l32.08-129.51a3.74,3.74,0,0,0,1.25.08l19.56,175.3a2.52,2.52,0,0,0-.87.31A2.32,2.32,0,0,0,689.93,633.38Zm-51.68-46.71-34.42-31.11a4.81,4.81,0,0,0,.53-5.67,4.46,4.46,0,0,0-1.25-1.37l66-91.84a4,4,0,0,0,1.22.57Zm-42.5-32.38-76.55,34-24-31.69,9.1-11,91,6.55A4.74,4.74,0,0,0,595.75,554.29Zm-100.61,2.13L486,544.27l18.18,1.31Zm-9.32-12.33-10.37-13.72,8.65-22.46L523,522.85l-18.74,22.57Zm-.22,0-15-1.08,4.79-12.44Zm-36-47.92a3,3,0,0,0,.73-1.22l33.63,12.92-8.61,22.35Zm.78-1.38a3.32,3.32,0,0,0-.27-2.5,2.8,2.8,0,0,0-.44-.61l75.43-92.2a2.29,2.29,0,0,0,.51.32L484,507.69Zm-5.36-.7-91.55,9.3-8.68-12.15a3.78,3.78,0,0,0,1.4-2.66L445,493.8C445,493.89,445,494,445,494.07Zm-98.82-5.68a3.71,3.71,0,0,0-.32-1.63l60.65-29.93,39,35.16a3.15,3.15,0,0,0-.55,1.64Zm-.39-1.79a2.06,2.06,0,0,0-.12-.26,3.42,3.42,0,0,0-.84-1L382.26,435l24.11,21.71Zm36.57-51.74,32.7-44a2.41,2.41,0,0,0,2,.35l15.68,52.51-26.18,12.92Zm36.14-47.25a2.41,2.41,0,0,0-2.12-1.15L414.51,352,524.3,396.68a2.54,2.54,0,0,0,.05,1.82l-91.48,45.14L417.2,391.16a2.62,2.62,0,0,0,.48-.23A2.42,2.42,0,0,0,418.5,387.61Zm-4-35.78L412.83,321l111.68,75.23a1.51,1.51,0,0,0-.15.28Zm112.37,43.22,10.71-121.26,68.09,32.7a4,4,0,0,0,.87,4.56L541.4,381.36l-.13.14-13.1,14.15A2.4,2.4,0,0,0,526.87,395.05Zm279.64-155-87.08,30,15-135.78a2.38,2.38,0,0,0,1.43-.33l.08-.07,72.42,100.86A4.82,4.82,0,0,0,806.51,240.09Zm.85,1.61-93.58,79.74,5.63-51.14,87.15-30.05a4.88,4.88,0,0,0,.43.93A6.15,6.15,0,0,0,807.36,241.7Zm1,1L706,399.92a2.52,2.52,0,0,0-.88-.32l8.59-77.91,93.72-79.86A4.86,4.86,0,0,0,808.4,242.66ZM934,277l-59.93,32.65-59.64-67.49a4.88,4.88,0,0,0,1.3-2.07l118.08,35.23A2.35,2.35,0,0,0,934,277Zm.54.71-43.17,51.51L874.2,309.78l59.88-32.64v0A2,2,0,0,0,934.55,277.7Zm.32.25-35.29,60.54-8.09-9.15,43.18-51.52Zm-4,95.89-31.14-35.22L935,278a2.46,2.46,0,0,0,.92.28Zm0,.25-2.48,46.31-51.85,3.31-9.94-28.22,33.07-56.71Zm36.39,43.83-38.7,2.47L931,374.27l37,41.83A2.38,2.38,0,0,0,967.2,417.92Zm.06.47L928.05,428.8l.45-8.24,38.71-2.47A1.57,1.57,0,0,0,967.26,418.39Zm.85,1.35-42.68,58.11L928,429l39.26-10.43a1.92,1.92,0,0,0,.24.55A2.2,2.2,0,0,0,968.11,419.74Zm-46,129.41a2.38,2.38,0,0,0-.53-.11l3.8-70.88,42.84-58.32a2.17,2.17,0,0,0,.45.24ZM886,531.82l19.2-26.13,15.33,43.51a1.76,1.76,0,0,0-.37.17,2.38,2.38,0,0,0-.81.83ZM861.1,565.41a4,4,0,0,0-2.54-.69L855.15,515l30.58,16.86ZM855,570.14l-46.88,18.6,11.07-44.23,36.09,22.23A4,4,0,0,0,855,570.14ZM796.25,640a2.32,2.32,0,0,0-.83-.45l12.68-50.63,47-18.64a4.81,4.81,0,0,0,.25.51,4.43,4.43,0,0,0,.73.87Zm-102.18-4.9a2.55,2.55,0,0,0-.13-.9l76-30.14,23.44,35.8a2.43,2.43,0,0,0-1,1.73Zm-84.79,69.22L638.34,587l51.47,46.52a2.39,2.39,0,0,0-.23,2.78,1.5,1.5,0,0,0,.19.25L610.39,705A2.43,2.43,0,0,0,609.28,704.34Zm-.71-.09-8-147a4.82,4.82,0,0,0,2.13-.69,4.63,4.63,0,0,0,1-.83l34.49,31.18L609.11,704.3A2.47,2.47,0,0,0,608.57,704.25ZM519.31,588.39l76.5-33.95c.08.16.16.32.25.47a4.77,4.77,0,0,0,4.33,2.3l8,147a2.35,2.35,0,0,0-1,.33l-.13.1ZM441,622l54.18-65.29,23.92,31.63-77.53,34.4c0-.06-.06-.13-.1-.19A2.28,2.28,0,0,0,441,622Zm-.65-.42,30.21-78.4,15.22,1.1,9.3,12.29-54.2,65.32A2.37,2.37,0,0,0,440.3,621.56Zm-.71-.18,5.18-80.07,25.57,1.84-30.2,78.35A2.57,2.57,0,0,0,439.59,621.38Zm-62.52-84.93,67.53,4.85-5.18,80.06a2.41,2.41,0,0,0-1.32.34l-.08.07Zm-.13-.18-23.38-32.74L445,494.24a3.29,3.29,0,0,0,.38,1.21,2.73,2.73,0,0,0,2.09,1.46l-2.87,44.22ZM175.62,521.6l177.74-18.05,23.36,32.7L175.63,521.79C175.63,521.73,175.62,521.66,175.62,521.6Zm0-.24L339,489.07a3.85,3.85,0,0,0,.42,1.16,3.57,3.57,0,0,0,5,1.25l.2-.16,8.62,12.07-177.64,18S175.6,521.38,175.6,521.36Zm13.21-257.59a3.62,3.62,0,0,0,2-.52l.07-.06,149.57,222.1A3.81,3.81,0,0,0,339,488.9L175.56,521.19a2.33,2.33,0,0,0-.28-.7,2.39,2.39,0,0,0-1.84-1.14Zm2.38-.81L382.13,434.88,344.7,485.26a3.54,3.54,0,0,0-4-.17.87.87,0,0,1-.11.09L191,263.09Zm.83-1L414.29,387.76a2.42,2.42,0,0,0,.07,2.36,2.27,2.27,0,0,0,.56.63l-32.69,44-190.9-171.9A3.73,3.73,0,0,0,192,262Zm.23-.4L414.34,352l1.87,34.51a2.46,2.46,0,0,0-1,.34,2.33,2.33,0,0,0-.81.81L192.11,261.86Zm.26-1,156,17.07,64.1,43.18,1.68,30.87-222-90.32A3.78,3.78,0,0,0,192.51,260.64Zm112.91-10.85a2.61,2.61,0,0,0,.71-.65l42.11,28.36-155.7-17a3.11,3.11,0,0,0,0-.61l109.23-11.8a2.63,2.63,0,0,0,.33.91A2.42,2.42,0,0,0,305.42,249.79Zm103,34.29-59.76-6.54L306.22,249a3.11,3.11,0,0,0,.2-.41l102,35.15A3.59,3.59,0,0,0,408.37,284.08Zm46.41-36.27a2.43,2.43,0,0,0,2.74.6l67.94,146.91-.14.06a2.56,2.56,0,0,0-.44.36L412.54,286.05a2.42,2.42,0,0,0,.29-2.87l-.17-.22Zm43.14,8.51L526,395.11a1.9,1.9,0,0,0-.38.13l-67.94-146.9.17-.08a2.46,2.46,0,0,0,1.1-1.5l37,7.49a1.87,1.87,0,0,0,.18,1.27A1.63,1.63,0,0,0,497.92,256.32Zm39.5,17.39L526.7,395a2,2,0,0,0-.54,0l-28.08-138.8.07,0,.15-.07.2-.1a2,2,0,0,0,.66-.74ZM550.77,124.5a2.26,2.26,0,0,0,.77-.09l56.51,179.93a4.37,4.37,0,0,0-.8.36,4,4,0,0,0-1.5,1.64L537.6,273.61Zm2.53-2.19,178.87,9.58a2.35,2.35,0,0,0,.35,1.29,2.12,2.12,0,0,0,.6.66l-121.52,171a4.05,4.05,0,0,0-3.39-.54L551.7,124.37a1.85,1.85,0,0,0,.45-.21A2.36,2.36,0,0,0,553.3,122.31Z"/><path class="cls-4" d="M219.68,127.16a2.41,2.41,0,0,0,2.67,3.35l.17,0a3,3,0,0,0,.49-.2l74.31,129.87-41.83,6.76a1.91,1.91,0,0,0-1-1.34,1.66,1.66,0,0,0-1-.15l-.16,0a1.76,1.76,0,0,0-1.1,1,2,2,0,0,0,0,1.4l-34.65,15a2.41,2.41,0,1,0-3.15,3.24,2,2,0,0,0,.26.09l-14.51,52.91a2.42,2.42,0,0,0-2.76,1.37,2.34,2.34,0,0,0-.13,1.56L93.39,371.43A2.48,2.48,0,0,0,92.08,370a2.42,2.42,0,0,0-2.86,3.73L6.29,445.75a3.52,3.52,0,0,0-1.2-.88,3.64,3.64,0,0,0-3,6.64,3.52,3.52,0,0,0,3.28-.2L138.75,669.88a2.53,2.53,0,0,0-.88,1,2.42,2.42,0,1,0,4.31-.2L315.63,567.66,414.53,603a2.41,2.41,0,1,0,3.61-1.29l44-72.55,138.63,45.28a2.41,2.41,0,0,0,4.52,1.65,2.43,2.43,0,0,0-1.22-3.2l-.31-.1L629.84,471.2a2.42,2.42,0,0,0,2.63-3.52l84.37-50.79a2.37,2.37,0,0,0,1.06.91,2.42,2.42,0,1,0,2-4.42,2.32,2.32,0,0,0-.61-.17l10.08-90.27a4,4,0,0,0,2-7.68,3.89,3.89,0,0,0-1.47-.34L731,273.3l37.89-4a2.41,2.41,0,1,0,3.37-2.54,2.46,2.46,0,0,0-1.53-.14L735.21,134.12a2.41,2.41,0,1,0-2.91-3.29,1.93,1.93,0,0,0-.11.34L677.78,117.9,627.34,36.41a2.46,2.46,0,0,0,.86-1,2.42,2.42,0,1,0-4.52-.31l-117,38.51a4.76,4.76,0,0,0-2.56-2.8,4.81,4.81,0,0,0-6.35,2.48l-.08.21L380.59,32a2.41,2.41,0,0,0-4.5-1.71,2.42,2.42,0,0,0,.11,2.18L223.9,126.8a2.35,2.35,0,0,0-1-.87A2.42,2.42,0,0,0,219.68,127.16Zm225,26.39L378.43,244.2a4.34,4.34,0,0,0-.66-.38,3.94,3.94,0,0,0-1.52-.34l2.11-209.75a2.33,2.33,0,0,0,1-.26ZM201.92,341.91l154.87,25.9a2.28,2.28,0,0,0,0,.26l-134.76,2L201.1,343.28a2.26,2.26,0,0,0,.66-.86A2,2,0,0,0,201.92,341.91Zm-.95,1.47,20.83,26.73L145,371.27l52.5-28.61a2.39,2.39,0,0,0,3.49.72Zm151.22,150.2a2.3,2.3,0,0,0,.1-.35L393,506.51l3.21,13.11-22.08,13.11-22.9-37.92A2.46,2.46,0,0,0,352.19,493.58Zm364.5-79-39.65-16,22.47-33.91L718,413.35A2.4,2.4,0,0,0,716.69,414.57ZM726,317.3a2.65,2.65,0,0,0-.12.37l-48.74-12.4-9.62-25.34,28.29-3,31.25,38.93A3.8,3.8,0,0,0,726,317.3ZM505.87,269a2.4,2.4,0,0,0,0,1.91L444.7,300.15a2.39,2.39,0,0,0-1.15-1.11,2.46,2.46,0,0,0-.29-.09l26.24-99.72,37.35,68.7A2.39,2.39,0,0,0,505.87,269ZM308.76,459.61l49.34-89.32a1.48,1.48,0,0,0,.13.08,2.54,2.54,0,0,0,.69.19l-9.27,118.75a2.53,2.53,0,0,0-2.45.94Zm38.33,30.77a2.71,2.71,0,0,0-.26.51,2.65,2.65,0,0,0-.17.89l-52.05-6.56,14.07-25.46Zm81-17.55,5.29-62.24,70.56,40.32-.18.35a4.8,4.8,0,0,0-.3,3Zm75.41-18.38a5,5,0,0,0,.46,1.16l-78.38,46.56L428,473ZM620.12,315.58a2.28,2.28,0,0,0,.19-.8l61.19,2.41,1.65,4.33L514,331a.86.86,0,0,1,0-.16l101.58-15.77a2.41,2.41,0,0,0,4.58.53ZM513.94,330.65a4.11,4.11,0,0,0-.32-1l86.48-41.43a3.57,3.57,0,0,0,6.5-.17,4.2,4.2,0,0,0,.17-.5L677,305.41l4.4,11.61-61.11-2.42a2.41,2.41,0,0,0-1.44-2.21,1.53,1.53,0,0,0-.41-.14l-.17,0a2.41,2.41,0,0,0-2.61,1.39,2.45,2.45,0,0,0-.18,1.27Zm125.25-120a3.58,3.58,0,0,0,1.84-.16l8.25,21.74-43.69,51.53a3.52,3.52,0,0,0-.69-.44l33.49-72.9a3.06,3.06,0,0,0,.63.2Zm-2.64-5a3.63,3.63,0,0,0,0,2.94l-27.29,13,3.61-40.21,24.32,23.29A3.65,3.65,0,0,0,636.55,205.6ZM506,78.05,578.07,130,572,142,505.65,78.45C505.76,78.32,505.87,78.19,506,78.05Zm66,64.13-19.28,38.51L504.22,79.54a4.74,4.74,0,0,0,1.31-1Zm6.25-12.1,36.71,26.45L612.72,181l-40.55-38.84ZM612.7,181.2l-3.63,40.46-29.91,14.28-26.39-55.05,19.32-38.58Zm-172,121.63a2.24,2.24,0,0,0,.84.64,2.49,2.49,0,0,0,.7.18L438.76,345,421.58,318.2Zm-19.25,15.22-43.12-67.2a3.89,3.89,0,0,0,.82-.75l61.46,49.72a1.92,1.92,0,0,0-.27.46,2.43,2.43,0,0,0,.25,2.42Zm82.79,132.27-.1.13a3.21,3.21,0,0,0-.19.31l-70.63-40.35,5.24-61.6,2.09-.51,64.75,100.91A4.88,4.88,0,0,0,504.28,450.32Zm2-120.75-61.54-27.42a2.33,2.33,0,0,0,.17-1l63.81-6,1,32.12A4,4,0,0,0,506.32,329.57Zm1.91-57.16a2.39,2.39,0,0,0,2.06-1.41,2.48,2.48,0,0,0,.15-.49L599.77,286a3,3,0,0,0,0,.43l-90.8,8.5Zm2-3.39,68.81-32.85,22.6,47.18a3.67,3.67,0,0,0-1.65,1.74,4.29,4.29,0,0,0-.24.77l-89.33-15.52A2.39,2.39,0,0,0,510.27,269Zm69-32.92,29.82-14.24-5.5,61.08a3.71,3.71,0,0,0-1.71.33ZM600,288l-86.49,41.44a3.93,3.93,0,0,0-1.94-1.87,4.14,4.14,0,0,0-1.68-.34l-1-32.13,90.79-8.5A3.71,3.71,0,0,0,600,288Zm-94,44.12-45.27,11.07-17.17-39.8a2.46,2.46,0,0,0,1.12-1.11l61.54,27.42A4,4,0,0,0,506,332.15Zm-45.37,11.27,45.46,105.41a3.5,3.5,0,0,0-.54.29L440.87,348.25Zm-22,5.21.27-3.15,1.7,2.66Zm.29-3.43,3.53-41.53a2.4,2.4,0,0,0,1-.17l17.15,39.76-19.82,4.84Zm5.86-44.9,61.16-29.2a2.37,2.37,0,0,0,1.17,1.12,2.28,2.28,0,0,0,1,.21l.69,22.54-63.81,6A2.4,2.4,0,0,0,444.77,300.3Zm64.46-32.4,43.45-86.82L579,236l-68.8,32.86A2.45,2.45,0,0,0,509.23,267.9Zm127.39-59.21a3.55,3.55,0,0,0,1.62,1.63l-33.49,72.9a3.39,3.39,0,0,0-1-.26l5.51-61.19Zm4.57,1.71a3.24,3.24,0,0,0,.82-.49l12.73,15.86-5.34,6.29Zm8.16,22,18,47.39-60.44,6.32a3.6,3.6,0,0,0-1.16-2.25Zm.12-.14,5.38-6.34,40.86,50.91-28.21,2.94Zm17.91,47.69L677,305.21l-70.14-17.85a3.64,3.64,0,0,0,.07-1.09L624,284.48l.18,0ZM509.81,335.31,508.1,448.37a4.72,4.72,0,0,0-1.82.39L460.83,343.38l45.25-11.06a4,4,0,0,0,3.73,3ZM427.87,472.87l-40.52,10L359.87,370.5a2.28,2.28,0,0,0,1.41-1.09l71.9,41.09ZM361.56,367.63l76.87-18.78-5.23,61.46-71.83-41.05.06-.1A2.52,2.52,0,0,0,361.56,367.63Zm-.05-.16a2.74,2.74,0,0,0-.38-.79l60.32-48.38,17.29,26.95-.3,3.42Zm-.49-.92a2.38,2.38,0,0,0-.86-.67,2.81,2.81,0,0,0-.54-.17l16-114.22a4.06,4.06,0,0,0,2.58-.54l43.12,67.21Zm17.55-122.24,66.18-90.59L469.38,199,443.1,298.9a2.39,2.39,0,0,0-2.34.79L379.3,250a4,4,0,0,0-.73-5.66Zm129.52,23.28L502.46,85.15l-.16-5.1a4.84,4.84,0,0,0,1.76-.43l48.53,101.27-43.51,86.93,0,0A2.53,2.53,0,0,0,508.09,267.59ZM506.75,76.36l87.48,21.33-16.09,32.14L506.06,77.91a4.88,4.88,0,0,0,.42-.74A4.53,4.53,0,0,0,506.75,76.36Zm87.64,21.38,25.27,6.16-4.72,52.43-36.66-26.4Zm25.44,6.2,11.89,2.9L637,172.18,615.1,156.45ZM637,172.41l2.49,31.06a3.65,3.65,0,0,0-2.16,1.05l-24.42-23.38,2.21-24.49Zm.18.13,24.12,17.37-18.66,14.84a3.42,3.42,0,0,0-3-1.29ZM661.41,190l14.68,10.57-21.24,25-12.7-15.83a3.63,3.63,0,0,0,.56-4.93Zm.14-.11,40.62-32.29,4.37,7L676.2,200.46Zm45.08-25.08,25.87,41.78-.87,33.77-55.29-39.82Zm26,42L769.88,267a2.3,2.3,0,0,0-.56.52l-37.53-27Zm-1.88,66.28-34.87,3.64-40.95-51,21.27-25.08,55.39,39.9Zm-4.93,44.68a4.32,4.32,0,0,0-.16.93L681.62,317l-4.38-11.56Zm-.17,1.1a1.49,1.49,0,0,0,0,.21l-42.37,2.37-1.64-4.31Zm-42.47,2.76,16.23,42.79-22.56,34L513.71,332.73a3.82,3.82,0,0,0,.27-1.58ZM631.63,466.78a1.56,1.56,0,0,0-.28-.16,2.36,2.36,0,0,0-2.51.37L512.68,334.27a4,4,0,0,0,1-1.34.06.06,0,0,1,0,0l163.12,65.77ZM628,468.47l-68.91-8.82L511.47,335a3.79,3.79,0,0,0,1.07-.65L628.71,467.1a2.31,2.31,0,0,0-.53.76A2.15,2.15,0,0,0,628,468.47Zm-69.1-8.84-46-5.89a4.78,4.78,0,0,0-4.61-5.37l1.71-113a4.58,4.58,0,0,0,1.33-.23Zm-53.38-2.32-43.43,71.6-37.77-12.34,1.21-14.19L504,455.76A4.69,4.69,0,0,0,505.52,457.31Zm-81.36,59.21-14.48-4.73,15.67-9.31Zm-14.69-4.8-16.36-5.34L387.39,483l40.47-9.95-2.49,29.23Zm-.2.12-12.94,7.69-3.18-12.95Zm-56.93-18.77a3.1,3.1,0,0,0-.1-1.42l35-8.61,5.7,23.28Zm-.15-1.58a3.13,3.13,0,0,0-2.37-2.15l9.27-118.76a2.47,2.47,0,0,0,.61,0l27.48,112.33Zm-4.8,2.48-69.85,59.92-14.07-5a3.73,3.73,0,0,0-.36-3l84.11-52.14A1.84,1.84,0,0,0,347.39,494ZM263,545.74a3.8,3.8,0,0,0-1.2-1.16l32.7-59.19L346.65,492a3.2,3.2,0,0,0,.48,1.66Zm-1.34-1.25c-.09,0-.16-.1-.24-.14a3.78,3.78,0,0,0-1.25-.32l2-62.72,32.19,4.05Zm.47-63.35,1.71-54.8a2.39,2.39,0,0,0,1.82-.85l42.86,34.16L294.43,485.2Zm2.69-59.42a2.4,2.4,0,0,0-2.4.26l-21.2-27.21,115.63-26A2.5,2.5,0,0,0,358,370.2l-49.33,89.3-42.83-34.14a2.56,2.56,0,0,0,.27-.45A2.41,2.41,0,0,0,264.84,421.72Zm-23.72-27.1-19-24.34,134.63-2a3.31,3.31,0,0,0,0,.33ZM358,365.94,297.59,260.27l74.57-12a4,4,0,0,0,2.32,3,3.65,3.65,0,0,0,1,.28l-13.32,94.92,0,.2-2.68,19.1A2.29,2.29,0,0,0,358,365.94ZM499.11,79,444.77,153.4l-65.25-120a2.47,2.47,0,0,0,1-1.1l0-.1,117,41.43A4.84,4.84,0,0,0,499.11,79Zm1.62.83L469.44,198.77l-24.58-45.21,54.38-74.43a4.85,4.85,0,0,0,.88.52A4,4,0,0,0,500.73,79.86Zm1.4.2,5.78,187.55a2.37,2.37,0,0,0-.91.25L469.56,199,500.89,79.91A5.26,5.26,0,0,0,502.13,80.06ZM624.85,36.52l-30.55,61L506.79,76.2a4.83,4.83,0,0,0-.11-2.45L623.73,35.24A2.41,2.41,0,0,0,624.85,36.52Zm.84.27-6,66.94-25.21-6.15L625,36.6h0A2.54,2.54,0,0,0,625.69,36.79Zm.41,0,5.6,69.85-11.85-2.89,6-67Zm51.45,81L631.88,106.7l-5.61-69.91a2.26,2.26,0,0,0,.92-.29Zm.13.21,24.4,39.43-40.67,32.33-24.28-17.49-5.24-65.44Zm54.89,15.2-30.35,24.12L677.91,118.1l54.23,13.23A2.43,2.43,0,0,0,732.57,133.25Zm.32.35-26.24,30.94-4.34-7,30.36-24.14A2.28,2.28,0,0,0,732.89,133.6Zm1.47.62-1.85,72.08-25.76-41.61,26.27-31a2.33,2.33,0,0,0,.5.31A2.11,2.11,0,0,0,734.36,134.22Zm36.16,132.49a2.1,2.1,0,0,0-.49.2l-37.36-60.35,1.86-72.33a3,3,0,0,0,.52-.06ZM731,273.13l.84-32.42,37.43,27a2.43,2.43,0,0,0-.2.35,2.46,2.46,0,0,0-.2,1.15Zm-1.24,41.78a4,4,0,0,0-2.49.88L696,277l34.74-3.63Zm-2.28,7.35-27.87,42-16.17-42.62,42.32-2.37A4,4,0,0,0,727.43,322.26Zm-8.35,90.93a2.46,2.46,0,0,0-.94.11l-18.51-48.8,27.94-42.16a3.1,3.1,0,0,0,.5.29,4,4,0,0,0,1.09.29Zm-86.69,54.33a2.28,2.28,0,0,0-.62-.66l45.17-68.13,39.69,16a2.42,2.42,0,0,0,.13,2ZM602.32,572.77,559.17,459.84,628,468.63a2.41,2.41,0,0,0,1.4,2.42l.3.1L603.62,572.69A2.39,2.39,0,0,0,602.32,572.77Zm-.63.33L511.13,457a4.81,4.81,0,0,0,1.36-1.78,4.59,4.59,0,0,0,.37-1.27l46.11,5.9,43.19,113A3.17,3.17,0,0,0,601.69,573.1ZM462.25,529l43.42-71.55a3.45,3.45,0,0,0,.47.24,4.79,4.79,0,0,0,4.87-.58L601.55,573.2a2.51,2.51,0,0,0-.66.87l0,.15Zm-45.14,72.32,7.2-84.53L462,529.06l-44,72.51a1.86,1.86,0,0,0-.2-.1A2.15,2.15,0,0,0,417.11,601.28Zm-.78,0-20-81.61,13.12-7.79,14.65,4.79-7.2,84.56A2.47,2.47,0,0,0,416.33,601.31Zm-.68.26-41.47-68.69,22-13.09,20,81.57A2.36,2.36,0,0,0,415.65,601.57Zm-99.83-34L374,533l41.47,68.68a2.45,2.45,0,0,0-.89,1l0,.09Zm-.21-.08L277.72,554l69.77-59.85a3.3,3.3,0,0,0,1,.77,2.74,2.74,0,0,0,2.55,0l22.9,37.93ZM142,670.41,277.58,554.08l37.85,13.51-173.34,103Zm-.15-.19L257.54,550.38a3.67,3.67,0,0,0,1,.71,3.56,3.56,0,0,0,4.8-1.81,2.17,2.17,0,0,0,.07-.24l14,5L141.87,670.27ZM5.56,451.23a3.75,3.75,0,0,0,1.34-1.57.32.32,0,0,1,0-.09l249.61,96.9a3.8,3.8,0,0,0,.87,3.8L141.69,670.11a2.06,2.06,0,0,0-.62-.42,2.4,2.4,0,0,0-2.17.11Zm1.49-2L262,481.29,260,544a3.54,3.54,0,0,0-3.38,2.16s0,.09-.05.14L7,449.41Zm.14-1.25,254.27-23.7a2.44,2.44,0,0,0,1.41,1.9,2.7,2.7,0,0,0,.83.19L262,481.12,7.1,449A3.68,3.68,0,0,0,7.19,447.94Zm-.05-.46,233.91-52.67,21.26,27.27a2.26,2.26,0,0,0-.66.86,2.36,2.36,0,0,0-.2,1.13L7.18,447.77A2.89,2.89,0,0,0,7.14,447.48Zm-.33-.94,137.84-75.1,77.28-1.16,19,24.38L7.1,447.32A4.3,4.3,0,0,0,6.81,446.54ZM93.3,373.15a2.41,2.41,0,0,0,.21-.93l50.77-.77L6.74,446.39a3.54,3.54,0,0,0-.35-.51l82.93-72.06a2.51,2.51,0,0,0,.79.56A2.42,2.42,0,0,0,93.3,373.15Zm104.1-30.64-52.79,28.76L93.5,372a2.34,2.34,0,0,0-.07-.45l103.83-29.42A3.45,3.45,0,0,0,197.4,342.51Zm17.38-56.28a2.41,2.41,0,0,0,2.59-1.07L357,367s-.06.09-.08.14a3.24,3.24,0,0,0-.16.53L201.94,341.75a2.4,2.4,0,0,0-1.4-2.52,1.22,1.22,0,0,0-.27-.09Zm40.27-17.65,102.31,97.9a2,2,0,0,0-.24.33L217.46,285l.09-.16a2.43,2.43,0,0,0,0-1.87l34.64-15a1.85,1.85,0,0,0,.87.94A1.62,1.62,0,0,0,255.05,268.58Zm42.36-8.28L357.89,366a2.24,2.24,0,0,0-.42.34l-102.31-97.9.05-.05.08-.15c0-.06.07-.13.1-.2a2,2,0,0,0,.13-1ZM223.17,130.19a2.3,2.3,0,0,0,.57-.51L372.88,245.11a4,4,0,0,0-.44.75,3.94,3.94,0,0,0-.3,2.2L297.5,260.12Zm.82-3.25,152.3-94.28a2.36,2.36,0,0,0,1,.86,2.41,2.41,0,0,0,.87.21l-2.11,209.75A4,4,0,0,0,373,245L223.86,129.55a2.52,2.52,0,0,0,.24-.43A2.39,2.39,0,0,0,224,126.94Z"/></svg>