<svg data-name="Layer 1" xmlns="http://www.w3.org/2000/svg" viewBox="0 0 61.46 72.44"><path d="M30.19 43.31L42.45 57a7.39 7.39 0 00-.45 2.32 70.42 70.42 0 01-13.54 13.12A72.63 72.63 0 018.55 49 73.57 73.57 0 01.16 9.74 25.44 25.44 0 007.7 11H8a24.65 24.65 0 005.14-.54A25.73 25.73 0 0028.52 0a27.3 27.3 0 0013.24 9.79 26.66 26.66 0 006.3 1.31 7.26 7.26 0 00-.16 1.54 7.92 7.92 0 00.28 2 .25.25 0 000 .15L31.77 29.42a7.71 7.71 0 00-5.77-.68 7.57 7.57 0 00-4 2.75 7.53 7.53 0 00-1.23 6.6 7.65 7.65 0 007.33 5.51 7.91 7.91 0 002-.28h.08" fill="#f57e21"/><path d="M57.81 20a70.33 70.33 0 01-8.54 29.09c-.6 1.07-1.21 2.11-1.83 3.11l-.06-.13-.1-.12-11.9-13.34a7.29 7.29 0 00.43-2.49 5 5 0 000-.77l17.37-15.43a7.73 7.73 0 002.43.4 7.28 7.28 0 001.32-.12h.18l.56-.13h.14" fill="#0b62a9"/><path d="M61.22 11.15a5.74 5.74 0 00-2.12-3.06 5.84 5.84 0 00-5.06-1A5.81 5.81 0 0051.17 9a3 3 0 00-.22.28 5.7 5.7 0 00-1 2 5.91 5.91 0 000 3 6.63 6.63 0 00.46 1.14l-.07.07L32 31.78l-.36-.3a5.91 5.91 0 00-3.49-1.15 5.8 5.8 0 00-5.83 5.77 6 6 0 00.22 1.57 5.8 5.8 0 002.12 3.06L25 41a5.79 5.79 0 004.68.68 6.82 6.82 0 001.09-.42l.07.08.9 1 12.49 14v.06l.1.11.39.44V57a5.67 5.67 0 00-.37 1.34 3.06 3.06 0 01-.1.51v.69a5.87 5.87 0 00.21 1.56 5.55 5.55 0 00.62 1.41 3 3 0 00.21.33 6 6 0 001.29 1.33 5.94 5.94 0 007.31-.22l.08-.08a4.43 4.43 0 00.61-.69 5.75 5.75 0 001.15-3.46 5.87 5.87 0 00-.21-1.56 5.89 5.89 0 00-7.17-4 5.57 5.57 0 00-1.29.53l-.71-.83-.09-.1-.1-.12L33.28 39l-.06-.1a5.68 5.68 0 00.78-2.8 5.45 5.45 0 00-.19-1.45L52.83 17.8a5.88 5.88 0 002.78.7 6 6 0 001.4-.17h.18a6 6 0 00.71-.25 7.37 7.37 0 00.79-.41 5.83 5.83 0 001.57-1.44 5.72 5.72 0 001-5m-31 26.54a2.49 2.49 0 01-1.3.88 2.07 2.07 0 01-.66.1 2.52 2.52 0 01-1.47-.49A2.4 2.4 0 0126 37a2.5 2.5 0 011.63-3 2.5 2.5 0 01.66-.09 2.46 2.46 0 012.35 1.78 2.11 2.11 0 01.1.66 2.45 2.45 0 01-.49 1.47m17.3 21.65a2.61 2.61 0 01.45-1.23 2.51 2.51 0 011.3-.89h.7a2.4 2.4 0 011.46.49 2.36 2.36 0 01.89 1.3 1.85 1.85 0 01.09.66 2.46 2.46 0 01-.48 1.46 2.41 2.41 0 01-1.3.89 2.47 2.47 0 01-3.11-2.35v-.24m9.91-45.18a1.61 1.61 0 01-.24.28l-.18.16a2.33 2.33 0 01-.87.45 2.44 2.44 0 01-.66.09 2.52 2.52 0 01-1.51-.49 2.37 2.37 0 01-.88-1.29 2.45 2.45 0 01-.1-.66 2.59 2.59 0 01.49-1.47 2.85 2.85 0 01.23-.26 2.62 2.62 0 011-.6 2.4 2.4 0 011.67.13h.06a1.75 1.75 0 01.27.16.36.36 0 01.12.08L57 11a2.31 2.31 0 01.81 1.24 1.85 1.85 0 01.09.66 2.4 2.4 0 01-.49 1.46" fill="#231f20"/></svg>