<svg id="Layer_1" data-name="Layer 1" xmlns="http://www.w3.org/2000/svg" viewBox="0 0 217.3 792"><defs><style>.cls-1{fill:#e6e7e7;}</style></defs><path class="cls-1" d="M-382.18,340.14a2.41,2.41,0,0,0,3.06,1.52,2.4,2.4,0,0,0,1.17-.85l.09-.14q.14-.24.24-.48l142.53,45.52L-261.36,419a1.89,1.89,0,0,0-1.64-.31,1.7,1.7,0,0,0-.87.59l-.09.15a1.71,1.71,0,0,0-.12,1.49,2,2,0,0,0,.92,1.05l-15.42,34.45a2.39,2.39,0,0,0-1.67-.07,2.43,2.43,0,0,0-1.53,3.07,2.42,2.42,0,0,0,3.06,1.52l.25-.11,25.07,48.8a2.43,2.43,0,0,0-1.12,2.88,2.44,2.44,0,0,0,1,1.24l-56.66,91.85a2.43,2.43,0,0,0-2-.21,2.43,2.43,0,0,0-1.52,3.07,2.4,2.4,0,0,0,1.93,1.61L-324.2,719.19a3.42,3.42,0,0,0-1.48.16,3.62,3.62,0,0,0-2.27,4.59,3.64,3.64,0,0,0,4.58,2.31,3.57,3.57,0,0,0,2.28-2.37l246,71a2.4,2.4,0,0,0,0,1.35A2.41,2.41,0,0,0-72,797.77a2.42,2.42,0,0,0,1.53-3.06A2.41,2.41,0,0,0-72,793.19L-13.79,600,83,559.2a2.41,2.41,0,0,0,4.47-1.78,2.39,2.39,0,0,0-2.67-1.61L68.17,472.58,201,412.28a2.41,2.41,0,1,0,1.39-3.36,1.85,1.85,0,0,0-.29.13l-49.41-92.46a2.43,2.43,0,0,0-.44-4.38l27.87-94.45a2.31,2.31,0,0,0,1.4,0,2.42,2.42,0,1,0-1.54-4.58,2.35,2.35,0,0,0-.57.29L125.8,140.07a4,4,0,0,0-3.71-7,4.14,4.14,0,0,0-1.31.75l-27.33-31.4L118.7,73.87a2.43,2.43,0,1,0-.45-3.23L2.54-3.09a2.38,2.38,0,0,0,.21-2A2.4,2.4,0,0,0-.31-6.6,2.4,2.4,0,0,0-1.83-3.55a2.37,2.37,0,0,0,.14.32l-49.07,27L-143-2.22a2.45,2.45,0,0,0-.05-1.34,2.42,2.42,0,0,0-3.06-1.53A2.43,2.43,0,0,0-147.65-2,2.35,2.35,0,0,0-146.6-.74l-60.26,107.49a4.72,4.72,0,0,0-3.78-.33,4.82,4.82,0,0,0-3,6.12,1.67,1.67,0,0,1,.08.2l-114.28,48.55a2.39,2.39,0,0,0-2.94-1.27,2.42,2.42,0,0,0-1.53,3.06,2.4,2.4,0,0,0,1.56,1.53L-379.32,337a2.36,2.36,0,0,0-1.34.05A2.41,2.41,0,0,0-382.18,340.14Zm183.67-132.57,12.43,111.57a4,4,0,0,0-.74.18,3.75,3.75,0,0,0-1.35.77l-140.18-156a2.57,2.57,0,0,0,.57-.88Zm-51.65,302.88,131.66-85.56.16.21-98,92.55L-249.84,512a2.34,2.34,0,0,0-.09-1.08A2.65,2.65,0,0,0-250.16,510.45Zm.29,1.73,33.42,5.62-55.85,52.77L-252.92,514a2.35,2.35,0,0,0,1.46,0A2.41,2.41,0,0,0-249.87,512.18Zm213,8.52c0-.11-.11-.21-.16-.32l39-17.7,11.22,7.5L5.7,534.77l-42.51-12.48A2.5,2.5,0,0,0-36.9,520.7ZM178.4,216.15l-40,15L132,191l46.5,23.41A2.42,2.42,0,0,0,178.4,216.15Zm-58.85-78c0,.12.11.23.16.35L75.4,162.29,51.19,150.11l18.86-21.29,49.33,7.58A3.91,3.91,0,0,0,119.55,138.15ZM-75.36,251.33a2.45,2.45,0,0,0,1.28,1.43l-25.34,62.85a2.34,2.34,0,0,0-1.59,0,2.36,2.36,0,0,0-.28.12l-48-91.23,74,25.4A2.46,2.46,0,0,0-75.36,251.33ZM-91.87,525l-24-99.18.15,0a2.58,2.58,0,0,0,.64-.33l73.41,93.8a2.53,2.53,0,0,0-1.17,2.36Zm49.05-3.21a2.18,2.18,0,0,0,.15.54,3,3,0,0,0,.47.78L-85,553.46l-6.84-28.28ZM5,454.15l-38.15-49.46L46.1,386.74c0,.12.06.25.1.37A4.9,4.9,0,0,0,48,389.55Zm43.17-64.51a5.14,5.14,0,0,0,1.13.55L23,477.47,5.1,454.29Zm-7.84-181.2a2.3,2.3,0,0,0-.4-.72l46.73-39.57,4.14,2.08L-27.53,291.52l-.11-.1,64.22-80.27a2.44,2.44,0,0,0,2.21.35A2.41,2.41,0,0,0,40.32,208.44ZM-27.76,291.3a4.17,4.17,0,0,0-.94-.54l35.75-89a3.52,3.52,0,0,0,2.42.07,3.62,3.62,0,0,0,2.26-4.59,3.38,3.38,0,0,0-.22-.47L75.4,162.48l11.09,5.59L39.81,207.58a2.41,2.41,0,0,0-2.56-.66,2,2,0,0,0-.39.18l-.15.09a2.4,2.4,0,0,0-.25,3.85Zm11.22-173.11a3.52,3.52,0,0,0,1.24-1.36L5.47,127.28l2.62,67.51a3.63,3.63,0,0,0-.8.14l-24.58-76.37a3.05,3.05,0,0,0,.61-.27Zm-5.35-1.92a3.61,3.61,0,0,0,2,2.17L-31.22,146.5l-24.51-32.09,33.66.73A3.66,3.66,0,0,0-21.89,116.27Zm-182.44-5.78,88.23-10.44,3.7,13-91.9-2C-204.31,110.83-204.31,110.66-204.33,110.49Zm92,2.68,11.82,41.41-104.08-41.81a4.55,4.55,0,0,0,.31-1.6ZM-115.93,100-71,94.71l14.91,19.52L-112.23,113Zm60,14.37,24.65,32.28-12.39,30.74-56.65-22.75-11.84-41.49Zm-44.57,205.86a2.38,2.38,0,0,0,1-.09,2.39,2.39,0,0,0,.63-.34l25.33,32.83-30.75-8.13Zm-3.91,24.23-77.2-20.4a3.74,3.74,0,0,0,.1-1.11l78.9-4.88a2.38,2.38,0,0,0,.11.53,2.41,2.41,0,0,0,1.83,1.6ZM46,386l0,.17a2.46,2.46,0,0,0,.06.36l-79.33,18L-71,355.6l1.19-1.79L46.08,384.44A4.75,4.75,0,0,0,46,386Zm-80.1-90.38L-98,317a2.62,2.62,0,0,0-.57-.88l43-47.52,22.44,23A4,4,0,0,0-34.12,295.66Zm-37.21-43.42a2.44,2.44,0,0,0,.56-2.44,2.52,2.52,0,0,0-.22-.47L5.35,200.41a2.8,2.8,0,0,0,.25.35l-61.19,67.62Zm-.79-3.89,28.52-70.71L5,197.15a3.62,3.62,0,0,0,0,2.39,3.24,3.24,0,0,0,.34.73L-71.09,249.2A2.37,2.37,0,0,0-72.12,248.35Zm28.59-70.87,12.35-30.64L6.05,195.58A3.63,3.63,0,0,0,5,197ZM6.89,201.72l-35.75,89a4,4,0,0,0-2.69-.06,3.9,3.9,0,0,0-1.47.88l-22.45-23L5.72,200.88A3.6,3.6,0,0,0,6.89,201.72Zm-39.47,96-25.9,38.76L-98,318.77a2.43,2.43,0,0,0,.07-1.58l63.89-21.37A3.94,3.94,0,0,0-32.58,297.75Zm-25.84,39,104.75,47c-.08.2-.15.39-.21.59L-69.74,353.65Zm-12.72,18.73-1.93-2.5,3.06.81Zm-2.1-2.72-25.46-33a2.65,2.65,0,0,0,.62-.8l39.5,17.72-11.33,17Zm-26-37.06,25.34-62.85a2.43,2.43,0,0,0,1.62,0,2.33,2.33,0,0,0,.85-.5l15.75,16.15L-98.7,316A2.27,2.27,0,0,0-99.26,315.67Zm25.62-67.44-26.64-93.36,56.52,22.71-28.51,70.71A2.36,2.36,0,0,0-73.64,248.23ZM-19.75,118.5a3.52,3.52,0,0,0,2.29.11L7.12,195a3.5,3.5,0,0,0-.93.51L-31.1,146.65Zm4.53-1.82a3.73,3.73,0,0,0,.27-.92l20.1,3.09.32,8.24Zm20.87,10.7,45.27,22.78-40.29,45.5a3.52,3.52,0,0,0-2.37-.87Zm0-.2-.32-8.3,64.52,9.91L51,150Zm45.44,23.06,24.13,12.15L11.44,196.63a3.79,3.79,0,0,0-.68-.86l11.38-12.85.12-.13ZM-27.66,297.53,47.48,382a4.78,4.78,0,0,0-1.09,1.51l-104.71-47,25.89-38.73a4,4,0,0,0,3.44.45A4.16,4.16,0,0,0-27.66,297.53ZM4.89,454.3-18.24,489l-96.17-64.24a2.38,2.38,0,0,0,.31-1.76l80.76-18.3Zm-120-32.77,44-65.79,37.67,48.85-80.68,18.28a.79.79,0,0,0,0-.13A2.61,2.61,0,0,0-115.1,421.53Zm-.15-.09a2.57,2.57,0,0,0-.81-.31l11.77-76.43,31,8.18,2.1,2.72Zm-1-.34a2.4,2.4,0,0,0-1.09.09,2.94,2.94,0,0,0-.51.23l-65.37-95a4.06,4.06,0,0,0,1.54-2.15l77.2,20.41Zm-69.67-102-12.43-111.5,48.76,16.75,48.12,91.39a2.38,2.38,0,0,0-1.18,2.16l-78.9,4.88a4.54,4.54,0,0,0-.18-.95A4,4,0,0,0-185.9,319.13Zm111.21-70.36L-202.13,118.09l-3.56-3.65a4.82,4.82,0,0,0,1-1.51l104.2,41.86,26.67,93.48h0A2.53,2.53,0,0,0-74.69,248.77Zm-130.21-140L-126,65.33l9.85,34.56-88.21,10.43a4.86,4.86,0,0,0-.19-.82A4.62,4.62,0,0,0-204.9,108.72Zm79.05-43.47,22.79-12.53,32,41.84L-116,99.86Zm22.94-12.62,10.72-5.89,48,44.63-26.74,3.16ZM-44,91.52l22.82,21.22a3.61,3.61,0,0,0-.88,2.23l-33.8-.74L-70.79,94.69Zm.23,0L-14.26,88-18,111.55a3.5,3.5,0,0,0-1.63.13,3.62,3.62,0,0,0-1.44.93ZM-14.09,88l18-2.12,1.27,32.82-20.06-3.09a3.67,3.67,0,0,0-.15-1.6,3.63,3.63,0,0,0-2.76-2.41Zm0-.17,8.12-51.25,8,2.25L3.86,85.69ZM2.22,38.86l47.3,13.32L71.7,77.66,4,85.67Zm47.6,13.4,68.07,19.18a2.44,2.44,0,0,0-.06.77L71.9,77.64Zm43.4,50.13L70,128.63,5.31,118.7,4,85.84l67.79-8Zm26.56,36.27a4.59,4.59,0,0,0,.5.79L86.63,167.94l-11-5.56Zm.62.92.15.14L90.91,170.1,86.8,168ZM91,170.31l40.88,20.58,6.37,40.33L-26.53,293a4,4,0,0,0-.87-1.35Zm60,141.81a1.73,1.73,0,0,0-.31.07,2.38,2.38,0,0,0-1.6,2L-26.25,294.82a4,4,0,0,0-.19-1.64.05.05,0,0,1,0,0L138.22,231.4Zm-1.53,3.69L92.69,355.89l-119.32-59.7a4.06,4.06,0,0,0,.35-1.2L149,314.33a2.25,2.25,0,0,0,.12.92A2,2,0,0,0,149.44,315.81ZM92.53,356l-37.9,26.75A4.82,4.82,0,0,0,49.21,381a4.69,4.69,0,0,0-1.61.93l-75.13-84.5a4.07,4.07,0,0,0,.82-1.07ZM51.62,390.36,68,472.49,31.81,488.91,23.1,477.63l26.35-87.39A4.66,4.66,0,0,0,51.62,390.36ZM31.65,489l-13.87,6.3L23,477.83Zm-14.07,6.4L1.91,502.49l-20-13.37L5,454.44l17.92,23.23Zm-.07.21L13.17,510,2.08,502.6Zm-54.65,24.64a2.93,2.93,0,0,0-1-1l20-30L1.73,502.58Zm-1.18-1.07a3.42,3.42,0,0,0-2.5-.29,3.09,3.09,0,0,0-.69.31l-73.42-93.81a2.5,2.5,0,0,0,.43-.43l96.16,64.23Zm-1.86,5.08-11,91.37-13.75,5.8a3.81,3.81,0,0,0-2.29-1.95l26.77-95.27Zm-27.2,95.17a3.76,3.76,0,0,0-1.67,0l-15.9-65.73,42.86-30.39a3.37,3.37,0,0,0,1.48.9Zm-1.84,0a2.61,2.61,0,0,0-.27.06,3.42,3.42,0,0,0-1.13.61l-40.95-47.56,26.47-18.77Zm-42.46-47-35.76-41.54a2.42,2.42,0,0,0,.76-1.86L-92,525.19l6.86,28.37Zm-38.17-45.61a2.41,2.41,0,0,0-1.6,1.81l-34-5.72,67.64-97.33a2.54,2.54,0,0,0,1.79.35L-92,525l-54.63,3.77a4.64,4.64,0,0,0-.11-.51A2.42,2.42,0,0,0-149.85,526.76Zm-35.8-3.94-30.43-5.13,97.87-92.48a1.71,1.71,0,0,0,.25.22Zm66.81-100.16-116-37L-188,326.36a4.05,4.05,0,0,0,3.72.61,3.87,3.87,0,0,0,.93-.47l54.32,79,.11.16L-118,421.52A2.33,2.33,0,0,0-118.84,422.66Zm-89.89-306.82,10.2,91.54L-327.72,163a2.49,2.49,0,0,0,0-1.48.41.41,0,0,0,0-.09l114.27-48.55A4.85,4.85,0,0,0-208.73,115.84Zm1.76-.47,57.29,108.79-48.67-16.72-10.21-91.61a5.09,5.09,0,0,0,1-.21A5.22,5.22,0,0,0-207,115.37Zm1.16-.81,131,134.35a2.3,2.3,0,0,0-.5.8l-74.14-25.47-57.37-108.95A4.91,4.91,0,0,0-205.81,114.56Zm61-115L-126,65.16-205,108.57a4.92,4.92,0,0,0-1.74-1.74L-146.46-.65A2.39,2.39,0,0,0-144.77-.46Zm.81-.37,40.79,53.41-22.73,12.5L-144.61-.49h0A2.51,2.51,0,0,0-144-.83Zm.31-.26,51.33,47.7L-103,52.49-143.82-.93Zm92.68,25L-92.16,46.53-143.53-1.22a2.4,2.4,0,0,0,.47-.84Zm.23.07L-6.1,36.52l-8.14,51.31-29.71,3.51L-92,46.65ZM0-1.95-6.07,36.34-50.53,23.83-1.61-3.07A2.41,2.41,0,0,0,0-1.95Zm.47,0L2,38.63l-7.95-2.24L.17-1.92A1.48,1.48,0,0,0,.47-1.91ZM2-2.44,49.31,51.94,2.21,38.68.64-1.91A2,2,0,0,0,1.23-2,2.3,2.3,0,0,0,2-2.44ZM118.16,70.79a2.09,2.09,0,0,0-.22.48L49.62,52,2.11-2.55a2.5,2.5,0,0,0,.34-.39ZM93.33,102.26,72,77.79l45.81-5.41a2.74,2.74,0,0,0,.09.39,2.51,2.51,0,0,0,.63,1Zm27.32,31.64a4,4,0,0,0-1.24,2.33l-49.23-7.56,23.15-26.15Zm3.28,7,7.87,49.82-40.72-20.5,29.6-30.34A4,4,0,0,0,123.93,140.86Zm55.29,72.67a2.43,2.43,0,0,0-.61.71L132,190.78l-7.89-50a3.78,3.78,0,0,0,.56-.13,4.13,4.13,0,0,0,1-.52ZM152,312.15a2.48,2.48,0,0,0-.9-.07l-12.75-80.74,40.07-15a2.41,2.41,0,0,0,1.45,1.4Zm49,97.91L92.87,356l56.67-40a2.39,2.39,0,0,0,2.66.84l.29-.13,49.41,92.46A2.26,2.26,0,0,0,201,410.06Zm-.25.67L55.51,386.31a4.79,4.79,0,0,0-.2-2.24,4.57,4.57,0,0,0-.58-1.17l38-26.82,108.21,54.13A2.26,2.26,0,0,0,200.75,410.73ZM68.14,472.41,51.79,390.33a4.79,4.79,0,0,0,3.71-3.86L200.72,410.9a2.23,2.23,0,0,0,.1,1.08,1.56,1.56,0,0,0,.06.15Zm15.59,83.82L31.91,489.05,68,472.66l16.57,83.18-.21,0A2.3,2.3,0,0,0,83.73,556.23Zm-.55.55L13.31,510.11l4.41-14.61,14-6.37,51.84,67.2A2.2,2.2,0,0,0,83.18,556.78Zm-.34.65-77-22.61,7.39-24.54,69.83,46.64A3,3,0,0,0,82.84,557.43Zm-96.56,42.38L5.82,535l77,22.61a2.34,2.34,0,0,0,0,1.36l0,.09Zm-.21.08L-51,615.53l11-91.26a3.37,3.37,0,0,0,1.26-.1,2.72,2.72,0,0,0,1.88-1.72L5.65,534.93ZM-72.37,793.11-51,615.73l37-15.63-58.19,193Zm-.24,0,4.32-166.53a3.9,3.9,0,0,0,1.22-.16,3.56,3.56,0,0,0,2.32-4.58c0-.09-.08-.15-.11-.23l13.66-5.77L-72.54,793.08ZM-321,723.72a3.63,3.63,0,0,0-.07-2.06l0-.09,249.48-97.24a3.81,3.81,0,0,0,3.21,2.21l-4.32,166.53a2.34,2.34,0,0,0-.74.12A2.4,2.4,0,0,0-75,794.73Zm-.27-2.51,209.61-148.6,40.94,47.55a3.52,3.52,0,0,0-1,3.88.52.52,0,0,0,.06.13l-249.48,97.25Zm-.74-1L-150.64,530.9a2.44,2.44,0,0,0,2.32.45,2.34,2.34,0,0,0,.74-.42l35.76,41.55L-321.38,721.05A4.32,4.32,0,0,0-322,720.19Zm-.35-.3L-185.57,523l34.09,5.74a2.5,2.5,0,0,0,.1,1.08,2.42,2.42,0,0,0,.62,1l-171.42,189.3Zm-.88-.47,50.86-148.5,56.18-53.08,30.49,5.13L-322.54,719.79A4.26,4.26,0,0,0-323.28,719.42Zm14.16-112.55a2.52,2.52,0,0,0-.47-.83l36.9-34.87-50.75,148.18a3.75,3.75,0,0,0-.6-.13l12.44-109.17a2.29,2.29,0,0,0,1-.12A2.41,2.41,0,0,0-309.12,606.87Zm56-92.93-19.49,56.88-37.15,35.1a3.07,3.07,0,0,0-.35-.28l56.65-91.85A2.07,2.07,0,0,0-253.08,513.94Zm-25.23-53.23a2.4,2.4,0,0,0,1.19-2.54l158.23-34.08a.83.83,0,0,0,0,.15,2.17,2.17,0,0,0,.24.51l-131.64,85.56a2.41,2.41,0,0,0-2.74-.91c-.09,0-.17.08-.26.12Zm17.77-40.22,141.56,3a2.91,2.91,0,0,0,0,.4L-277.15,458a1.16,1.16,0,0,1,0-.18,2.41,2.41,0,0,0-1.23-1.4L-263,422a1.88,1.88,0,0,0,1.28.11A1.65,1.65,0,0,0-260.54,420.49Zm25.63-34.73,116,37.06a1.89,1.89,0,0,0-.08.53l-141.57-3v-.07l-.05-.16a1.74,1.74,0,0,0,0-.22,2,2,0,0,0-.58-.81ZM-377.57,340a2.4,2.4,0,0,0,.08-.76l187.94-15.7a4.25,4.25,0,0,0,.18.86,3.91,3.91,0,0,0,1.27,1.82L-235,385.57Zm-1.59-2.95,48.56-172.41a2.46,2.46,0,0,0,1.34-.06,2.29,2.29,0,0,0,.78-.44l140.18,156a4,4,0,0,0-1.25,3.18l-187.94,15.69a2.77,2.77,0,0,0-.11-.48A2.4,2.4,0,0,0-379.16,337.07Z"/></svg>